<?xml version="1.0" encoding="utf-8"?>
<!-- Generator: Adobe Illustrator 22.0.1, SVG Export Plug-In . SVG Version: 6.00 Build 0)  -->
<svg version="1.1" id="Layer_1" xmlns="http://www.w3.org/2000/svg" xmlns:xlink="http://www.w3.org/1999/xlink" x="0px" y="0px"
	 width="230px" height="107.5px" viewBox="0 0 230 107.5" style="enable-background:new 0 0 230 107.5;" xml:space="preserve">
<style type="text/css">
	.st0{clip-path:url(#SVGID_6_);}
	.st1{fill:#1C3661;}
	.st2{clip-path:url(#SVGID_28_);}
	.st3{clip-path:url(#SVGID_30_);fill:#E8EBEB;}
	.st4{clip-path:url(#SVGID_32_);fill:#FFFFFF;}
	.st5{clip-path:url(#SVGID_34_);fill:none;stroke:#1C3661;stroke-width:2;stroke-miterlimit:10;}
	.st6{clip-path:url(#SVGID_36_);fill:#FFFFFF;}
	.st7{clip-path:url(#SVGID_38_);fill:none;stroke:#1C3661;stroke-width:2;stroke-miterlimit:10;}
	.st8{clip-path:url(#SVGID_40_);fill:none;stroke:#1C3661;stroke-width:2;stroke-miterlimit:10;}
	.st9{clip-path:url(#SVGID_42_);fill:#ED0080;}
	.st10{clip-path:url(#SVGID_44_);fill:none;stroke:#1C3661;stroke-width:2;stroke-miterlimit:10;}
	.st11{clip-path:url(#SVGID_46_);fill:none;stroke:#1C3661;stroke-width:2;stroke-miterlimit:10;}
	.st12{clip-path:url(#SVGID_48_);fill:none;stroke:#1C3661;stroke-width:2;stroke-miterlimit:10;}
	.st13{clip-path:url(#SVGID_50_);fill:none;stroke:#1C3661;stroke-width:2;stroke-miterlimit:10;}
</style>
<g>
	<g>
		<defs>
			<rect id="SVGID_1_" x="-525.2" y="-523.4" width="1280" height="1966.4"/>
		</defs>
		<clipPath id="SVGID_2_">
			<use xlink:href="#SVGID_1_"  style="overflow:visible;"/>
		</clipPath>
	</g>
	<g>
		<defs>
			<rect id="SVGID_3_" x="-525.2" y="-523.4" width="1280" height="1966.4"/>
		</defs>
		<clipPath id="SVGID_4_">
			<use xlink:href="#SVGID_3_"  style="overflow:visible;"/>
		</clipPath>
	</g>
	<g>
		<defs>
			<rect id="SVGID_5_" x="-525.2" y="-523.4" width="1280" height="1966.4"/>
		</defs>
		<clipPath id="SVGID_6_">
			<use xlink:href="#SVGID_5_"  style="overflow:visible;"/>
		</clipPath>
		<g class="st0">
			<path class="st1" d="M12.4,98.3c0,0.4-0.1,0.8-0.2,1.1s-0.3,0.6-0.5,0.9s-0.4,0.5-0.7,0.7s-0.6,0.3-0.9,0.4s-0.7,0.2-1.1,0.3
				s-0.8,0.1-1.2,0.1h-3c-0.2,0-0.4-0.1-0.5-0.2s-0.2-0.3-0.2-0.6v-9.9c0-0.3,0.1-0.4,0.2-0.6s0.3-0.2,0.5-0.2h2.9
				c0.7,0,1.3,0.1,1.8,0.2s0.9,0.3,1.2,0.5s0.6,0.5,0.8,0.9s0.3,0.8,0.3,1.3c0,0.3,0,0.5-0.1,0.8s-0.2,0.5-0.3,0.7s-0.3,0.4-0.5,0.5
				s-0.4,0.3-0.7,0.4c0.3,0.1,0.6,0.2,0.9,0.3s0.5,0.3,0.7,0.6s0.4,0.5,0.5,0.8S12.4,97.9,12.4,98.3z M9.4,93.5c0-0.2,0-0.4-0.1-0.6
				S9.1,92.5,9,92.4s-0.4-0.2-0.6-0.3S7.9,92,7.5,92H6.4v3h1.3c0.3,0,0.6,0,0.8-0.1s0.4-0.2,0.5-0.3s0.2-0.3,0.3-0.5
				S9.4,93.7,9.4,93.5z M10,98.3c0-0.3,0-0.5-0.1-0.7s-0.3-0.4-0.5-0.5S9,96.9,8.7,96.8s-0.6-0.1-1-0.1H6.4v3.2h1.7
				c0.3,0,0.6,0,0.8-0.1s0.4-0.2,0.6-0.3s0.3-0.3,0.4-0.5S10,98.6,10,98.3z"/>
			<path class="st1" d="M24.2,97.4c0,0.7-0.1,1.3-0.3,1.9c-0.2,0.6-0.5,1-0.9,1.4c-0.4,0.4-0.9,0.7-1.5,0.9c-0.6,0.2-1.3,0.3-2,0.3
				s-1.4-0.1-1.9-0.3s-1-0.4-1.4-0.8c-0.4-0.4-0.7-0.8-0.9-1.4s-0.3-1.2-0.3-1.9v-6.9c0-0.1,0-0.1,0.1-0.2s0.1-0.1,0.2-0.1
				s0.2-0.1,0.4-0.1s0.3,0,0.6,0c0.2,0,0.4,0,0.6,0s0.3,0,0.4,0.1c0.1,0.1,0.2,0.1,0.2,0.1s0.1,0.1,0.1,0.2v6.7
				c0,0.5,0.1,0.8,0.2,1.2c0.1,0.4,0.3,0.6,0.5,0.8s0.5,0.4,0.7,0.5s0.6,0.2,1,0.2c0.4,0,0.7-0.1,1-0.2s0.5-0.3,0.7-0.5
				s0.4-0.5,0.5-0.8c0.1-0.3,0.2-0.7,0.2-1.1v-6.8c0-0.1,0-0.1,0.1-0.2c0.1-0.1,0.1-0.1,0.2-0.1c0.1,0,0.2-0.1,0.4-0.1
				c0.2,0,0.3,0,0.6,0c0.3,0,0.4,0,0.5,0c0.1,0,0.3,0,0.3,0.1s0.1,0.1,0.2,0.1c0.1,0,0.1,0.1,0.1,0.2v6.8H24.2z"/>
			<path class="st1" d="M34.1,98.3c0,0.6-0.1,1.1-0.3,1.6s-0.5,0.8-0.9,1.1s-0.8,0.5-1.3,0.7s-1.1,0.2-1.6,0.2c-0.4,0-0.8,0-1.1-0.1
				c-0.3-0.1-0.6-0.1-0.9-0.2s-0.5-0.2-0.6-0.3c-0.1-0.1-0.3-0.2-0.4-0.3c-0.1-0.1-0.1-0.2-0.2-0.3c-0.1-0.1,0-0.4,0-0.6
				s0-0.3,0-0.5s0-0.2,0.1-0.3c0.1-0.1,0.1-0.1,0.1-0.2s0.1,0,0.2,0c0.1,0,0.2,0,0.3,0.1s0.3,0.2,0.6,0.3c0.3,0.1,0.5,0.2,0.8,0.3
				s0.7,0.1,1.1,0.1c0.3,0,0.5,0,0.8-0.1s0.4-0.2,0.6-0.3s0.3-0.3,0.4-0.5c0.1-0.2,0.1-0.4,0.1-0.6c0-0.3-0.1-0.5-0.2-0.7
				c-0.1-0.2-0.3-0.3-0.5-0.5s-0.5-0.3-0.8-0.4s-0.6-0.3-0.9-0.4s-0.6-0.3-0.9-0.5s-0.5-0.4-0.8-0.6s-0.4-0.5-0.5-0.9
				c-0.1-0.4-0.2-0.7-0.2-1.2s0.1-1,0.3-1.4c0.2-0.4,0.5-0.8,0.8-1s0.7-0.5,1.2-0.6s1-0.2,1.5-0.2c0.3,0,0.5,0,0.8,0.1
				s0.5,0.1,0.8,0.2s0.4,0.1,0.6,0.2s0.3,0.2,0.4,0.2s0.1,0.1,0.1,0.1s0,0.1,0.1,0.2s0,0.2,0,0.3s0,0.2,0,0.4c0,0.2,0,0.3,0,0.4
				s0,0.2,0,0.3s0,0.1-0.1,0.2s-0.1,0.1-0.2,0.1s-0.2,0-0.3-0.1s-0.3-0.2-0.5-0.3s-0.4-0.2-0.7-0.3s-0.6-0.1-0.9-0.1s-0.5,0-0.7,0.1
				s-0.3,0.1-0.5,0.3s-0.2,0.2-0.3,0.4s-0.1,0.3-0.1,0.5c0,0.3,0.1,0.5,0.2,0.7c0.1,0.2,0.3,0.3,0.6,0.5c0.3,0.2,0.5,0.3,0.8,0.4
				s0.6,0.3,0.9,0.4s0.6,0.3,0.9,0.5s0.6,0.4,0.8,0.6s0.4,0.5,0.6,0.9S34.1,97.8,34.1,98.3z"/>
			<path class="st1" d="M39,101.3c0,0.1,0,0.1-0.1,0.2s-0.1,0.1-0.2,0.1s-0.2,0.1-0.4,0.1s-0.3,0-0.6,0c-0.2,0-0.4,0-0.6,0
				s-0.3,0-0.4-0.1s-0.2-0.1-0.2-0.1s-0.1-0.1-0.1-0.2V90.6c0-0.1,0-0.1,0.1-0.2s0.1-0.1,0.2-0.1s0.2-0.1,0.4-0.1s0.3,0,0.6,0
				c0.2,0,0.4,0,0.6,0s0.3,0,0.4,0.1s0.2,0.1,0.2,0.1s0.1,0.1,0.1,0.2V101.3z"/>
			<path class="st1" d="M51.5,100.9c0,0.1,0,0.3-0.1,0.4s-0.1,0.2-0.2,0.3s-0.2,0.1-0.3,0.2s-0.2,0-0.3,0h-1c-0.2,0-0.4,0-0.5-0.1
				s-0.3-0.1-0.4-0.2s-0.2-0.3-0.4-0.4s-0.2-0.4-0.4-0.7l-2.8-5.3c-0.2-0.3-0.3-0.7-0.5-1s-0.3-0.7-0.5-1.1l0,0c0,0.4,0,0.8,0.1,1.3
				s0,0.9,0,1.3v6c0,0.1,0,0.1,0,0.2S44.1,102,44,102s-0.2,0.1-0.3,0.1s-0.3,0-0.5,0s-0.4,0-0.5,0s-0.2,0-0.3-0.1s-0.1-0.1-0.2-0.1
				s0-0.1,0-0.2V91.1c0-0.3,0.1-0.5,0.2-0.6s0.4-0.2,0.6-0.2h1.2c0.2,0,0.4,0,0.6,0.1s0.3,0.1,0.4,0.2s0.2,0.2,0.3,0.4
				s0.2,0.3,0.3,0.6l2.2,4.2c0.1,0.3,0.3,0.5,0.4,0.7s0.2,0.5,0.4,0.7s0.2,0.5,0.3,0.7s0.2,0.5,0.3,0.7l0,0c0-0.4,0-0.8,0-1.3
				s0-0.9,0-1.3v-5.3c0-0.1,0-0.1,0.1-0.2s0.1-0.1,0.2-0.1s0.2-0.1,0.3-0.1s0.3,0,0.5,0s0.4,0,0.5,0s0.2,0,0.3,0.1s0.1,0.1,0.2,0.1
				s0,0.1,0,0.2C51.5,90.7,51.5,100.9,51.5,100.9z"/>
			<path class="st1" d="M61.5,100.8c0,0.2,0,0.3,0,0.4s0,0.2-0.1,0.3s-0.1,0.1-0.1,0.2s-0.1,0-0.1,0h-5.7c-0.2,0-0.4-0.1-0.5-0.2
				s-0.2-0.3-0.2-0.6V91c0-0.3,0.1-0.4,0.2-0.6s0.3-0.2,0.5-0.2H61c0.1,0,0.1,0,0.1,0s0.1,0.1,0.1,0.2s0.1,0.2,0.1,0.3s0,0.3,0,0.4
				c0,0.2,0,0.3,0,0.4s0,0.2-0.1,0.3s-0.1,0.1-0.1,0.2s-0.1,0-0.1,0H57v2.8h3.4c0.1,0,0.1,0,0.1,0l0.1,0.1c0,0,0.1,0.2,0.1,0.3
				s0,0.3,0,0.4c0,0.2,0,0.3,0,0.4s0,0.2-0.1,0.3s-0.1,0.1-0.1,0.1h-0.1H57v3.2H61c0.1,0,0.1,0,0.1,0s0.1,0.1,0.1,0.2
				s0.1,0.2,0.1,0.3S61.5,100.6,61.5,100.8z"/>
			<path class="st1" d="M70.7,98.3c0,0.6-0.1,1.1-0.3,1.6s-0.5,0.8-0.9,1.1s-0.8,0.5-1.3,0.7s-1.1,0.2-1.6,0.2c-0.4,0-0.8,0-1.1-0.1
				s-0.6-0.1-0.9-0.2s-0.5-0.2-0.6-0.3c-0.1-0.1-0.3-0.2-0.4-0.3s-0.1-0.2-0.2-0.3s0-0.4,0-0.6s0-0.3,0-0.5s0-0.2,0.1-0.3
				s0.1-0.1,0.1-0.2s0.1,0,0.2,0c0.1,0,0.2,0,0.3,0.1c0.1,0.1,0.3,0.2,0.6,0.3s0.5,0.2,0.8,0.3s0.7,0.1,1.1,0.1c0.3,0,0.5,0,0.8-0.1
				s0.4-0.2,0.6-0.3s0.3-0.3,0.4-0.5s0.1-0.4,0.1-0.6c0-0.3-0.1-0.5-0.2-0.7s-0.3-0.3-0.5-0.5s-0.8-0.1-1-0.2s-0.6-0.3-0.9-0.4
				s-0.6-0.3-0.9-0.5s-0.5-0.4-0.8-0.6c-0.3-0.2-0.4-0.5-0.5-0.9s-0.2-0.7-0.2-1.2s0.1-1,0.3-1.4s0.5-0.8,0.8-1s0.7-0.5,1.2-0.6
				s1-0.2,1.5-0.2c0.3,0,0.5,0,0.8,0.1s0.5,0.1,0.8,0.2s0.4,0.1,0.6,0.2s0.3,0.2,0.4,0.2S70,91,70,91s0,0.1,0.1,0.2s0,0.2,0,0.3
				s0,0.2,0,0.4c0,0.2,0,0.3,0,0.4s0,0.2,0,0.3s0,0.1-0.1,0.2s-0.1,0.1-0.2,0.1s-0.2,0-0.3-0.1s-0.3-0.2-0.5-0.3s-0.4-0.2-0.7-0.3
				s-0.6-0.1-0.9-0.1s-0.5,0-0.7,0.1s-0.3,0.1-0.5,0.3s-0.2,0.2-0.3,0.4s-0.1,0.3-0.1,0.5c0,0.3,0.1,0.5,0.2,0.7s0.3,0.3,0.6,0.5
				s0.5,0.3,0.8,0.4s0.6,0.3,0.9,0.4s0.6,0.3,0.9,0.5s0.6,0.4,0.8,0.6s0.4,0.5,0.6,0.9S70.7,97.8,70.7,98.3z"/>
			<path class="st1" d="M79.9,98.3c0,0.6-0.1,1.1-0.3,1.6s-0.5,0.8-0.9,1.1s-0.8,0.5-1.3,0.7s-1.1,0.2-1.6,0.2c-0.4,0-0.8,0-1.1-0.1
				c-0.3-0.1-0.6-0.1-0.9-0.2s-0.5-0.2-0.6-0.3s-0.3-0.2-0.4-0.3s-0.1-0.2-0.2-0.3s0-0.4,0-0.6s0-0.3,0-0.5s0-0.2,0.1-0.3
				s0.1-0.1,0.1-0.2s0.1,0,0.2,0s0.2,0,0.3,0.1s0.3,0.2,0.6,0.3s0.5,0.2,0.8,0.3s0.7,0.1,1.1,0.1c0.3,0,0.5,0,0.8-0.1
				s0.4-0.2,0.6-0.3c0.2-0.1,0.3-0.3,0.4-0.5s0.1-0.4,0.1-0.6c0-0.3-0.1-0.5-0.2-0.7s-0.3-0.3-0.5-0.5c-0.2-0.1-0.5-0.3-0.8-0.4
				s-0.6-0.3-0.9-0.4s-0.6-0.3-0.9-0.5s-0.5-0.4-0.8-0.6s-0.4-0.5-0.5-0.9s-0.2-0.7-0.2-1.2s0.1-1,0.3-1.4s0.5-0.8,0.8-1
				s0.7-0.5,1.2-0.6s1-0.2,1.5-0.2c0.3,0,0.5,0,0.8,0.1s0.5,0.1,0.8,0.2s0.4,0.1,0.6,0.2s0.3,0.2,0.4,0.2s0.1,0.1,0.1,0.1
				s0,0.1,0.1,0.2c0,0.1,0,0.2,0,0.3s0,0.2,0,0.4c0,0.2,0,0.3,0,0.4s0,0.2,0,0.3c0,0.1-0.1,0.1-0.1,0.2c0,0-0.1,0.1-0.2,0.1
				s-0.2,0-0.3-0.1s-0.3-0.2-0.5-0.3S78,92.1,77.8,92s-0.6-0.1-0.9-0.1s-0.5,0-0.7,0.1s-0.3,0.1-0.5,0.3c-0.1,0.1-0.2,0.2-0.3,0.4
				C75,92.8,75,92.9,75,93.1c0,0.3,0.1,0.5,0.2,0.7s0.3,0.3,0.6,0.5c0.2,0.1,0.5,0.3,0.8,0.4s0.6,0.3,0.9,0.4s0.6,0.3,0.9,0.5
				s0.6,0.4,0.8,0.6s0.4,0.5,0.6,0.9S79.9,97.8,79.9,98.3z"/>
		</g>
	</g>
	<g>
		<defs>
			<rect id="SVGID_7_" x="-525.2" y="-523.4" width="1280" height="1966.4"/>
		</defs>
		<clipPath id="SVGID_8_">
			<use xlink:href="#SVGID_7_"  style="overflow:visible;"/>
		</clipPath>
	</g>
	<g>
		<defs>
			<rect id="SVGID_9_" x="-525.2" y="-523.4" width="1280" height="1966.4"/>
		</defs>
		<clipPath id="SVGID_10_">
			<use xlink:href="#SVGID_9_"  style="overflow:visible;"/>
		</clipPath>
	</g>
	<g>
		<defs>
			<rect id="SVGID_11_" x="-525.2" y="-523.4" width="1280" height="1966.4"/>
		</defs>
		<clipPath id="SVGID_12_">
			<use xlink:href="#SVGID_11_"  style="overflow:visible;"/>
		</clipPath>
	</g>
	<g>
		<defs>
			<rect id="SVGID_13_" x="-525.2" y="-523.4" width="1280" height="1966.4"/>
		</defs>
		<clipPath id="SVGID_14_">
			<use xlink:href="#SVGID_13_"  style="overflow:visible;"/>
		</clipPath>
	</g>
	<g>
		<defs>
			<rect id="SVGID_15_" x="-525.2" y="-523.4" width="1280" height="1966.4"/>
		</defs>
		<clipPath id="SVGID_16_">
			<use xlink:href="#SVGID_15_"  style="overflow:visible;"/>
		</clipPath>
	</g>
	<g>
		<defs>
			<rect id="SVGID_17_" x="-525.2" y="-523.4" width="1280" height="1966.4"/>
		</defs>
		<clipPath id="SVGID_18_">
			<use xlink:href="#SVGID_17_"  style="overflow:visible;"/>
		</clipPath>
	</g>
	<g>
		<defs>
			<rect id="SVGID_19_" x="-525.2" y="-523.4" width="1280" height="1966.4"/>
		</defs>
		<clipPath id="SVGID_20_">
			<use xlink:href="#SVGID_19_"  style="overflow:visible;"/>
		</clipPath>
	</g>
	<g>
		<defs>
			<rect id="SVGID_21_" x="-525.2" y="-523.4" width="1280" height="1966.4"/>
		</defs>
		<clipPath id="SVGID_22_">
			<use xlink:href="#SVGID_21_"  style="overflow:visible;"/>
		</clipPath>
	</g>
	<g>
		<defs>
			<rect id="SVGID_23_" x="-525.2" y="-523.4" width="1280" height="1966.4"/>
		</defs>
		<clipPath id="SVGID_24_">
			<use xlink:href="#SVGID_23_"  style="overflow:visible;"/>
		</clipPath>
	</g>
	<g>
		<defs>
			<rect id="SVGID_25_" x="-525.2" y="-523.4" width="1280" height="1966.4"/>
		</defs>
		<clipPath id="SVGID_26_">
			<use xlink:href="#SVGID_25_"  style="overflow:visible;"/>
		</clipPath>
	</g>
	<g>
		<defs>
			<rect id="SVGID_27_" x="-525.2" y="-523.4" width="1280" height="1966.4"/>
		</defs>
		<clipPath id="SVGID_28_">
			<use xlink:href="#SVGID_27_"  style="overflow:visible;"/>
		</clipPath>
		<g class="st2">
			<g>
				<defs>
					<rect id="SVGID_29_" x="-525.2" y="-523.4" width="1280" height="1966.4"/>
				</defs>
				<clipPath id="SVGID_30_">
					<use xlink:href="#SVGID_29_"  style="overflow:visible;"/>
				</clipPath>
				<path class="st3" d="M142.2,37.2c0,15.6-12.6,28.2-28.2,28.2c-15.7,0-28.3-12.6-28.3-28.2S98.3,8.9,113.9,8.9
					C129.6,8.9,142.2,21.6,142.2,37.2"/>
			</g>
			<g>
				<defs>
					<rect id="SVGID_31_" x="-525.2" y="-523.4" width="1280" height="1966.4"/>
				</defs>
				<clipPath id="SVGID_32_">
					<use xlink:href="#SVGID_31_"  style="overflow:visible;"/>
				</clipPath>
				<rect x="100.2" y="12.4" class="st4" width="36" height="43"/>
			</g>
			<g>
				<defs>
					<rect id="SVGID_33_" x="-525.2" y="-523.4" width="1280" height="1966.4"/>
				</defs>
				<clipPath id="SVGID_34_">
					<use xlink:href="#SVGID_33_"  style="overflow:visible;"/>
				</clipPath>
				<polyline class="st5" points="104.2,21.4 104.2,16.4 136.2,16.4 136.2,55.4 104.2,55.4 104.2,45.4 				"/>
			</g>
			<g>
				<defs>
					<rect id="SVGID_35_" x="-525.2" y="-523.4" width="1280" height="1966.4"/>
				</defs>
				<clipPath id="SVGID_36_">
					<use xlink:href="#SVGID_35_"  style="overflow:visible;"/>
				</clipPath>
				<polygon class="st6" points="136.2,55.4 117.2,62.4 116.2,62.4 116.2,5.4 117.2,5.4 136.2,12.4 				"/>
			</g>
			<g>
				<defs>
					<rect id="SVGID_37_" x="-525.2" y="-523.4" width="1280" height="1966.4"/>
				</defs>
				<clipPath id="SVGID_38_">
					<use xlink:href="#SVGID_37_"  style="overflow:visible;"/>
				</clipPath>
				<polygon class="st7" points="136.2,55.4 117.2,62.4 116.2,62.4 116.2,5.4 117.2,5.4 136.2,12.4 				"/>
			</g>
			<g>
				<defs>
					<rect id="SVGID_39_" x="-525.2" y="-523.4" width="1280" height="1966.4"/>
				</defs>
				<clipPath id="SVGID_40_">
					<use xlink:href="#SVGID_39_"  style="overflow:visible;"/>
				</clipPath>
				<path class="st8" d="M146.2,55.4h-3 M141.2,55.4h-4 M104.2,55.4h-11"/>
			</g>
			<g>
				<defs>
					<rect id="SVGID_41_" x="-525.2" y="-523.4" width="1280" height="1966.4"/>
				</defs>
				<clipPath id="SVGID_42_">
					<use xlink:href="#SVGID_41_"  style="overflow:visible;"/>
				</clipPath>
				<polygon class="st9" points="111.2,34.4 98.2,21.4 98.2,28.4 83.2,28.4 83.2,40.4 98.2,40.4 98.2,47.4 				"/>
			</g>
			<g>
				<defs>
					<rect id="SVGID_43_" x="-525.2" y="-523.4" width="1280" height="1966.4"/>
				</defs>
				<clipPath id="SVGID_44_">
					<use xlink:href="#SVGID_43_"  style="overflow:visible;"/>
				</clipPath>
				<polyline class="st10" points="120.2,29.4 121.2,31.4 121.2,36.4 120.2,38.4 				"/>
			</g>
			<g>
				<defs>
					<rect id="SVGID_45_" x="-525.2" y="-523.4" width="1280" height="1966.4"/>
				</defs>
				<clipPath id="SVGID_46_">
					<use xlink:href="#SVGID_45_"  style="overflow:visible;"/>
				</clipPath>
				<line class="st11" x1="91.2" y1="55.4" x2="89.2" y2="55.4"/>
			</g>
			<g>
				<defs>
					<rect id="SVGID_47_" x="-525.2" y="-523.4" width="1280" height="1966.4"/>
				</defs>
				<clipPath id="SVGID_48_">
					<use xlink:href="#SVGID_47_"  style="overflow:visible;"/>
				</clipPath>
				<polyline class="st12" points="100.2,19.4 100.2,12.4 116.2,12.4 				"/>
			</g>
			<g>
				<defs>
					<rect id="SVGID_49_" x="-525.2" y="-523.4" width="1280" height="1966.4"/>
				</defs>
				<clipPath id="SVGID_50_">
					<use xlink:href="#SVGID_49_"  style="overflow:visible;"/>
				</clipPath>
				<line class="st13" x1="100.2" y1="55.4" x2="100.2" y2="49.4"/>
			</g>
			<g>
				<defs>
					<rect id="SVGID_51_" x="-525.2" y="-523.4" width="1280" height="1966.4"/>
				</defs>
				<clipPath id="SVGID_52_">
					<use xlink:href="#SVGID_51_"  style="overflow:visible;"/>
				</clipPath>
			</g>
			<g>
				<defs>
					<rect id="SVGID_53_" x="-525.2" y="-523.4" width="1280" height="1966.4"/>
				</defs>
				<clipPath id="SVGID_54_">
					<use xlink:href="#SVGID_53_"  style="overflow:visible;"/>
				</clipPath>
			</g>
			<g>
				<defs>
					<rect id="SVGID_55_" x="-525.2" y="-523.4" width="1280" height="1966.4"/>
				</defs>
				<clipPath id="SVGID_56_">
					<use xlink:href="#SVGID_55_"  style="overflow:visible;"/>
				</clipPath>
			</g>
			<g>
				<defs>
					<rect id="SVGID_57_" x="-525.2" y="-523.4" width="1280" height="1966.4"/>
				</defs>
				<clipPath id="SVGID_58_">
					<use xlink:href="#SVGID_57_"  style="overflow:visible;"/>
				</clipPath>
			</g>
			<g>
				<defs>
					<rect id="SVGID_59_" x="-525.2" y="-523.4" width="1280" height="1966.4"/>
				</defs>
				<clipPath id="SVGID_60_">
					<use xlink:href="#SVGID_59_"  style="overflow:visible;"/>
				</clipPath>
			</g>
			<g>
				<defs>
					<rect id="SVGID_61_" x="-525.2" y="-523.4" width="1280" height="1966.4"/>
				</defs>
				<clipPath id="SVGID_62_">
					<use xlink:href="#SVGID_61_"  style="overflow:visible;"/>
				</clipPath>
			</g>
			<g>
				<defs>
					<rect id="SVGID_63_" x="-525.2" y="-523.4" width="1280" height="1966.4"/>
				</defs>
				<clipPath id="SVGID_64_">
					<use xlink:href="#SVGID_63_"  style="overflow:visible;"/>
				</clipPath>
			</g>
			<g>
				<defs>
					<rect id="SVGID_65_" x="-525.2" y="-523.4" width="1280" height="1966.4"/>
				</defs>
				<clipPath id="SVGID_66_">
					<use xlink:href="#SVGID_65_"  style="overflow:visible;"/>
				</clipPath>
			</g>
			<g>
				<defs>
					<rect id="SVGID_67_" x="-525.2" y="-523.4" width="1280" height="1966.4"/>
				</defs>
				<clipPath id="SVGID_68_">
					<use xlink:href="#SVGID_67_"  style="overflow:visible;"/>
				</clipPath>
			</g>
			<g>
				<defs>
					<rect id="SVGID_69_" x="-525.2" y="-523.4" width="1280" height="1966.4"/>
				</defs>
				<clipPath id="SVGID_70_">
					<use xlink:href="#SVGID_69_"  style="overflow:visible;"/>
				</clipPath>
			</g>
			<g>
				<defs>
					<rect id="SVGID_71_" x="-525.2" y="-523.4" width="1280" height="1966.4"/>
				</defs>
				<clipPath id="SVGID_72_">
					<use xlink:href="#SVGID_71_"  style="overflow:visible;"/>
				</clipPath>
			</g>
			<g>
				<defs>
					<rect id="SVGID_73_" x="-525.2" y="-523.4" width="1280" height="1966.4"/>
				</defs>
				<clipPath id="SVGID_74_">
					<use xlink:href="#SVGID_73_"  style="overflow:visible;"/>
				</clipPath>
			</g>
			<g>
				<defs>
					<rect id="SVGID_75_" x="-525.2" y="-523.4" width="1280" height="1966.4"/>
				</defs>
				<clipPath id="SVGID_76_">
					<use xlink:href="#SVGID_75_"  style="overflow:visible;"/>
				</clipPath>
			</g>
			<g>
				<defs>
					<rect id="SVGID_77_" x="-525.2" y="-523.4" width="1280" height="1966.4"/>
				</defs>
				<clipPath id="SVGID_78_">
					<use xlink:href="#SVGID_77_"  style="overflow:visible;"/>
				</clipPath>
			</g>
			<g>
				<defs>
					<rect id="SVGID_79_" x="-525.2" y="-523.4" width="1280" height="1966.4"/>
				</defs>
				<clipPath id="SVGID_80_">
					<use xlink:href="#SVGID_79_"  style="overflow:visible;"/>
				</clipPath>
			</g>
			<g>
				<defs>
					<rect id="SVGID_81_" x="-525.2" y="-523.4" width="1280" height="1966.4"/>
				</defs>
				<clipPath id="SVGID_82_">
					<use xlink:href="#SVGID_81_"  style="overflow:visible;"/>
				</clipPath>
			</g>
			<g>
				<defs>
					<rect id="SVGID_83_" x="-525.2" y="-523.4" width="1280" height="1966.4"/>
				</defs>
				<clipPath id="SVGID_84_">
					<use xlink:href="#SVGID_83_"  style="overflow:visible;"/>
				</clipPath>
			</g>
			<g>
				<defs>
					<rect id="SVGID_85_" x="-525.2" y="-523.4" width="1280" height="1966.4"/>
				</defs>
				<clipPath id="SVGID_86_">
					<use xlink:href="#SVGID_85_"  style="overflow:visible;"/>
				</clipPath>
			</g>
			<g>
				<defs>
					<rect id="SVGID_87_" x="-525.2" y="-523.4" width="1280" height="1966.4"/>
				</defs>
				<clipPath id="SVGID_88_">
					<use xlink:href="#SVGID_87_"  style="overflow:visible;"/>
				</clipPath>
			</g>
			<g>
				<defs>
					<rect id="SVGID_89_" x="-525.2" y="-523.4" width="1280" height="1966.4"/>
				</defs>
				<clipPath id="SVGID_90_">
					<use xlink:href="#SVGID_89_"  style="overflow:visible;"/>
				</clipPath>
			</g>
			<g>
				<defs>
					<rect id="SVGID_91_" x="-525.2" y="-523.4" width="1280" height="1966.4"/>
				</defs>
				<clipPath id="SVGID_92_">
					<use xlink:href="#SVGID_91_"  style="overflow:visible;"/>
				</clipPath>
			</g>
			<g>
				<defs>
					<rect id="SVGID_93_" x="-525.2" y="-523.4" width="1280" height="1966.4"/>
				</defs>
				<clipPath id="SVGID_94_">
					<use xlink:href="#SVGID_93_"  style="overflow:visible;"/>
				</clipPath>
			</g>
			<g>
				<defs>
					<rect id="SVGID_95_" x="-525.2" y="-523.4" width="1280" height="1966.4"/>
				</defs>
				<clipPath id="SVGID_96_">
					<use xlink:href="#SVGID_95_"  style="overflow:visible;"/>
				</clipPath>
			</g>
		</g>
	</g>
</g>
<path class="st1" d="M94.4,93.6c0,0.6-0.1,1.2-0.3,1.7s-0.5,0.9-0.9,1.2s-0.8,0.6-1.4,0.8c-0.6,0.2-1.2,0.3-2,0.3H89v3.6
	c0,0.1,0,0.1-0.1,0.2c0,0-0.1,0.1-0.2,0.1s-0.2,0.1-0.4,0.1s-0.3,0-0.6,0c-0.2,0-0.4,0-0.6,0c-0.1,0-0.3,0-0.4-0.1s-0.1-0.1-0.2-0.1
	s-0.1-0.1-0.1-0.2V90.9c0-0.3,0.1-0.5,0.2-0.6c0.1-0.1,0.3-0.2,0.6-0.2h2.7c0.3,0,0.5,0,0.8,0s0.5,0.1,0.9,0.1s0.7,0.2,1,0.4
	c0.3,0.2,0.6,0.4,0.9,0.7s0.4,0.6,0.6,1S94.4,93.1,94.4,93.6z M92,93.7c0-0.4-0.1-0.7-0.2-1s-0.3-0.4-0.5-0.6s-0.4-0.2-0.6-0.2
	c-0.2,0-0.5,0-0.7,0h-1v3.9h1c0.4,0,0.7,0,0.9-0.1s0.5-0.2,0.6-0.4s0.3-0.4,0.4-0.6S92,94,92,93.7z"/>
<path class="st1" d="M106.2,100.6c0.1,0.2,0.1,0.4,0.1,0.5s0,0.2-0.1,0.3s-0.2,0.1-0.3,0.1s-0.4,0-0.7,0s-0.5,0-0.7,0
	s-0.3,0-0.4-0.1s-0.1-0.1-0.2-0.1s-0.1-0.1-0.1-0.2l-0.8-2.3h-4.3L98,101c0,0.1-0.1,0.2-0.1,0.2s-0.1,0.1-0.2,0.1
	c-0.1,0-0.2,0.1-0.4,0.1s-0.4,0-0.6,0c-0.3,0-0.5,0-0.6,0s-0.3-0.1-0.3-0.1s-0.1-0.2-0.1-0.3s0.1-0.3,0.1-0.5l3.5-10.1
	c0-0.1,0.1-0.2,0.1-0.2s0.1-0.1,0.2-0.1c0.1,0,0.2-0.1,0.4-0.1s0.4,0,0.7,0s0.6,0,0.8,0s0.4,0,0.5,0.1c0.1,0,0.2,0.1,0.2,0.1
	s0.1,0.2,0.1,0.3L106.2,100.6z M101,92.3L101,92.3l-1.6,4.8h3.2L101,92.3z"/>
<path class="st1" d="M117,101.2c0,0.1,0,0.1,0,0.2s-0.1,0.1-0.2,0.1s-0.2,0-0.4,0.1s-0.4,0-0.7,0c-0.2,0-0.4,0-0.6,0s-0.3,0-0.3-0.1
	s-0.1-0.1-0.2-0.1s-0.1-0.1-0.1-0.2l-1-2.5c-0.1-0.3-0.2-0.5-0.4-0.8s-0.2-0.4-0.4-0.6s-0.3-0.3-0.5-0.3s-0.4-0.1-0.7-0.1h-0.7v4.3
	c0,0.1,0,0.1-0.1,0.2c0,0-0.1,0.1-0.2,0.1s-0.2,0.1-0.4,0.1s-0.3,0-0.6,0c-0.2,0-0.4,0-0.6,0c-0.1,0-0.3,0-0.4-0.1s-0.1-0.1-0.2-0.1
	s-0.1-0.1-0.1-0.2V90.8c0-0.3,0.1-0.4,0.2-0.6c0.1-0.1,0.3-0.2,0.5-0.2h2.9c0.3,0,0.5,0,0.7,0s0.4,0,0.5,0c0.5,0.1,0.9,0.2,1.2,0.3
	s0.7,0.4,0.9,0.6c0.3,0.3,0.5,0.6,0.6,0.9s0.2,0.7,0.2,1.2c0,0.4,0,0.7-0.1,1s-0.2,0.6-0.4,0.8s-0.4,0.5-0.7,0.6s-0.6,0.3-0.9,0.4
	c0.2,0.1,0.3,0.2,0.5,0.3c0.1,0.1,0.3,0.3,0.4,0.4c0.1,0.2,0.3,0.4,0.4,0.6s0.2,0.5,0.3,0.7l1,2.2c0.1,0.2,0.1,0.4,0.2,0.5
	S117,101.1,117,101.2z M114,93.5c0-0.4-0.1-0.7-0.3-0.9s-0.4-0.4-0.8-0.5c-0.1,0-0.2-0.1-0.4-0.1c-0.1,0-0.4,0-0.6,0h-1v3.2h1.2
	c0.3,0,0.6,0,0.9-0.1s0.5-0.2,0.6-0.3s0.3-0.3,0.4-0.5S114,93.7,114,93.5z"/>
<path class="st1" d="M126.9,91c0,0.2,0,0.3,0,0.4s0,0.2-0.1,0.3s0,0.2-0.1,0.2l-0.1,0.1h-2.8v9.2c0,0.1,0,0.1-0.1,0.2
	s-0.1,0.1-0.2,0.1s-0.2,0.1-0.4,0.1c-0.1,0-0.3,0-0.6,0s-0.4,0-0.6,0c-0.2,0-0.3,0-0.4-0.1s-0.2-0.1-0.2-0.1s-0.1-0.1-0.1-0.2V92
	h-2.8c-0.1,0-0.1,0-0.1-0.1s-0.1-0.1-0.1-0.2s-0.1-0.2-0.1-0.3s0-0.3,0-0.4c0-0.2,0-0.3,0-0.4s0-0.2,0.1-0.3s0.1-0.1,0.1-0.2
	s0.1,0,0.1,0h8c0.1,0,0.1,0,0.1,0s0.1,0.1,0.1,0.2s0.1,0.2,0.1,0.3C126.9,90.7,126.9,90.9,126.9,91z"/>
<path class="st1" d="M138.4,100.7c0,0.1,0,0.3-0.1,0.4s-0.1,0.2-0.2,0.3c-0.1,0.1-0.2,0.1-0.3,0.2s-0.2,0-0.3,0h-1
	c-0.2,0-0.4,0-0.5-0.1c-0.1,0-0.3-0.1-0.4-0.2c-0.1-0.1-0.2-0.3-0.4-0.4s-0.2-0.4-0.4-0.7l-2.8-5.3c-0.2-0.3-0.3-0.7-0.5-1
	s-0.3-0.7-0.5-1.1l0,0c0,0.4,0,0.8,0.1,1.3s0,0.9,0,1.3v6c0,0.1,0,0.1,0,0.2s-0.1,0.1-0.2,0.1c-0.1,0-0.2,0.1-0.3,0.1s-0.3,0-0.5,0
	s-0.4,0-0.5,0s-0.2,0-0.3-0.1s-0.1-0.1-0.2-0.1s0-0.1,0-0.2V90.9c0-0.3,0.1-0.5,0.2-0.6s0.4-0.2,0.6-0.2h1.2c0.2,0,0.4,0,0.6,0.1
	s0.3,0.1,0.4,0.2c0.1,0.1,0.2,0.2,0.3,0.4s0.2,0.3,0.3,0.6l2.2,4.2c0.1,0.3,0.3,0.5,0.4,0.7s0.2,0.5,0.4,0.7s0.2,0.5,0.3,0.7
	s0.2,0.5,0.3,0.7l0,0c0-0.4,0-0.8,0-1.3c0-0.4,0-0.9,0-1.3v-5.3c0-0.1,0-0.1,0.1-0.2s0.1-0.1,0.2-0.1s0.2-0.1,0.3-0.1s0.3,0,0.5,0
	s0.4,0,0.5,0s0.2,0,0.3,0.1c0.1,0,0.1,0.1,0.2,0.1s0,0.1,0,0.2L138.4,100.7L138.4,100.7z"/>
<path class="st1" d="M148.3,100.6c0,0.2,0,0.3,0,0.4s0,0.2-0.1,0.3s-0.1,0.1-0.1,0.2H148h-5.7c-0.2,0-0.4-0.1-0.5-0.2
	s-0.2-0.3-0.2-0.6v-9.9c0-0.3,0.1-0.4,0.2-0.6c0.1-0.1,0.3-0.2,0.5-0.2h5.7c0.1,0,0.1,0,0.1,0s0.1,0.1,0.1,0.2s0.1,0.2,0.1,0.3
	s0,0.3,0,0.4c0,0.2,0,0.3,0,0.4s0,0.2-0.1,0.3s-0.1,0.1-0.1,0.2s-0.1,0-0.1,0h-4.2v2.8h3.4c0.1,0,0.1,0,0.1,0l0.1,0.1
	c0,0,0.1,0.2,0.1,0.3s0,0.3,0,0.4c0,0.2,0,0.3,0,0.4s0,0.2-0.1,0.3s-0.1,0.1-0.1,0.1h-0.1h-3.4v3.2h4.1c0.1,0,0.1,0,0.1,0
	s0.1,0.1,0.1,0.2s0.1,0.2,0.1,0.3C148.3,100.3,148.3,100.4,148.3,100.6z"/>
<path class="st1" d="M159.5,101.2c0,0.1,0,0.1,0,0.2s-0.1,0.1-0.2,0.1s-0.2,0-0.4,0.1s-0.4,0-0.7,0c-0.2,0-0.4,0-0.6,0
	s-0.3,0-0.3-0.1s-0.1-0.1-0.2-0.1s-0.1-0.1-0.1-0.2l-1-2.5c-0.1-0.3-0.2-0.5-0.4-0.8s-0.2-0.4-0.4-0.6s-0.3-0.3-0.5-0.3
	s-0.4-0.1-0.7-0.1h-0.7v4.3c0,0.1,0,0.1-0.1,0.2c0,0-0.1,0.1-0.2,0.1s-0.2,0.1-0.4,0.1s-0.3,0-0.6,0c-0.2,0-0.4,0-0.6,0
	c-0.1,0-0.3,0-0.4-0.1s-0.1-0.1-0.2-0.1s-0.1-0.1-0.1-0.2V90.8c0-0.3,0.1-0.4,0.2-0.6c0.1-0.1,0.3-0.2,0.5-0.2h2.9
	c0.3,0,0.5,0,0.7,0s0.4,0,0.5,0c0.5,0.1,0.9,0.2,1.2,0.3s0.7,0.4,0.9,0.6c0.3,0.3,0.5,0.6,0.6,0.9s0.2,0.7,0.2,1.2
	c0,0.4,0,0.7-0.1,1s-0.2,0.6-0.4,0.8s-0.4,0.5-0.7,0.6s-0.6,0.3-0.9,0.4c0.2,0.1,0.3,0.2,0.5,0.3c0.1,0.1,0.3,0.3,0.4,0.4
	c0.1,0.2,0.3,0.4,0.4,0.6s0.2,0.5,0.3,0.7l1,2.2c0.1,0.2,0.1,0.4,0.2,0.5S159.5,101.1,159.5,101.2z M156.5,93.5
	c0-0.4-0.1-0.7-0.3-0.9s-0.4-0.4-0.8-0.5c-0.1,0-0.2-0.1-0.4-0.1c-0.1,0-0.4,0-0.6,0h-1v3.2h1.2c0.3,0,0.6,0,0.9-0.1
	s0.5-0.2,0.6-0.3s0.3-0.3,0.4-0.5S156.5,93.7,156.5,93.5z"/>
<path class="st1" d="M173,93.7c0,0.6-0.1,1.2-0.3,1.7c-0.2,0.5-0.5,0.9-0.9,1.2c-0.4,0.3-0.8,0.6-1.4,0.8c-0.6,0.2-1.2,0.3-2,0.3
	h-0.9v3.6c0,0.1,0,0.1-0.1,0.2c0,0-0.1,0.1-0.2,0.1c-0.1,0-0.2,0.1-0.4,0.1c-0.2,0-0.3,0-0.6,0c-0.2,0-0.4,0-0.6,0
	c-0.1,0-0.3,0-0.4-0.1c-0.1-0.1-0.1-0.1-0.2-0.1c-0.1,0-0.1-0.1-0.1-0.2V91.1c0-0.3,0.1-0.5,0.2-0.6c0.1-0.1,0.3-0.2,0.6-0.2h2.7
	c0.3,0,0.5,0,0.8,0s0.5,0.1,0.9,0.1c0.4,0,0.7,0.2,1,0.4c0.3,0.2,0.6,0.4,0.9,0.7s0.4,0.6,0.6,1S173,93.3,173,93.7z M170.5,93.9
	c0-0.4-0.1-0.7-0.2-1c-0.1-0.3-0.3-0.4-0.5-0.6s-0.4-0.2-0.6-0.2s-0.5,0-0.7,0h-1V96h1c0.4,0,0.7,0,0.9-0.1s0.5-0.2,0.6-0.4
	c0.1-0.2,0.3-0.4,0.4-0.6C170.6,94.7,170.5,94.2,170.5,93.9z"/>
<path class="st1" d="M185.7,95.8c0,0.9-0.1,1.8-0.4,2.5s-0.6,1.4-1,1.9c-0.4,0.5-1,0.9-1.7,1.2s-1.5,0.4-2.4,0.4
	c-0.9,0-1.7-0.1-2.3-0.3c-0.7-0.2-1.2-0.6-1.6-1.1c-0.4-0.5-0.8-1.1-1-1.8c-0.2-0.7-0.3-1.6-0.3-2.6c0-0.9,0.1-1.7,0.4-2.5
	s0.6-1.4,1-1.9c0.4-0.5,1-0.9,1.7-1.2s1.5-0.4,2.4-0.4c0.9,0,1.6,0.1,2.3,0.3c0.7,0.2,1.2,0.6,1.7,1.1s0.8,1.1,1,1.8
	S185.7,94.9,185.7,95.8z M183.2,96c0-0.6,0-1.1-0.1-1.6c-0.1-0.5-0.3-0.9-0.5-1.3s-0.5-0.6-0.9-0.8c-0.4-0.2-0.8-0.3-1.4-0.3
	c-0.6,0-1,0.1-1.4,0.3c-0.4,0.2-0.7,0.5-0.9,0.9c-0.2,0.4-0.4,0.8-0.5,1.3c-0.1,0.5-0.1,1-0.1,1.5c0,0.6,0,1.2,0.1,1.7
	c0.1,0.5,0.3,0.9,0.5,1.3s0.5,0.6,0.9,0.8c0.4,0.2,0.8,0.3,1.4,0.3c0.6,0,1-0.1,1.4-0.3c0.4-0.2,0.7-0.5,0.9-0.9
	c0.2-0.4,0.4-0.8,0.5-1.3C183.2,97,183.2,96.5,183.2,96z"/>
<path class="st1" d="M196.7,101.4c0,0.1,0,0.1,0,0.2s-0.1,0.1-0.2,0.1c-0.1,0-0.2,0-0.4,0.1c-0.2,0.1-0.4,0-0.7,0
	c-0.2,0-0.4,0-0.6,0s-0.3,0-0.3-0.1s-0.1-0.1-0.2-0.1c-0.1,0-0.1-0.1-0.1-0.2l-1-2.5c-0.1-0.3-0.2-0.5-0.4-0.8
	c-0.2-0.3-0.2-0.4-0.4-0.6c-0.2-0.2-0.3-0.3-0.5-0.3s-0.4-0.1-0.7-0.1h-0.7v4.3c0,0.1,0,0.1-0.1,0.2c0,0-0.1,0.1-0.2,0.1
	c-0.1,0-0.2,0.1-0.4,0.1c-0.2,0-0.3,0-0.6,0c-0.2,0-0.4,0-0.6,0c-0.1,0-0.3,0-0.4-0.1c-0.1-0.1-0.1-0.1-0.2-0.1
	c-0.1,0-0.1-0.1-0.1-0.2V91c0-0.3,0.1-0.4,0.2-0.6c0.1-0.1,0.3-0.2,0.5-0.2h2.9c0.3,0,0.5,0,0.7,0s0.4,0,0.5,0
	c0.5,0.1,0.9,0.2,1.2,0.3c0.3,0.1,0.7,0.4,0.9,0.6c0.3,0.3,0.5,0.6,0.6,0.9c0.1,0.3,0.2,0.7,0.2,1.2c0,0.4,0,0.7-0.1,1
	c-0.1,0.3-0.2,0.6-0.4,0.8c-0.2,0.2-0.4,0.5-0.7,0.6c-0.3,0.1-0.6,0.3-0.9,0.4c0.2,0.1,0.3,0.2,0.5,0.3c0.1,0.1,0.3,0.3,0.4,0.4
	c0.1,0.2,0.3,0.4,0.4,0.6c0.1,0.2,0.2,0.5,0.3,0.7l1,2.2c0.1,0.2,0.1,0.4,0.2,0.5C196.4,100.8,196.7,101.3,196.7,101.4z M193.8,93.6
	c0-0.4-0.1-0.7-0.3-0.9c-0.2-0.2-0.4-0.4-0.8-0.5c-0.1,0-0.2-0.1-0.4-0.1c-0.1,0-0.4,0-0.6,0h-1v3.2h1.2c0.3,0,0.6,0,0.9-0.1
	s0.5-0.2,0.6-0.3c0.1-0.1,0.3-0.3,0.4-0.5C193.9,94.2,193.8,93.9,193.8,93.6z"/>
<path class="st1" d="M206.5,91.2c0,0.2,0,0.3,0,0.4s0,0.2-0.1,0.3c-0.1,0.1-0.1,0.1-0.1,0.2l-0.1,0.1h-2.8v9.2c0,0.1,0,0.1-0.1,0.2
	c-0.1,0.1-0.1,0.1-0.2,0.1c-0.1,0-0.2,0.1-0.4,0.1c-0.1,0-0.3,0-0.6,0c-0.3,0-0.4,0-0.6,0s-0.3,0-0.4-0.1c-0.1-0.1-0.2-0.1-0.2-0.1
	s-0.1-0.1-0.1-0.2v-9.2h-2.8c-0.1,0-0.1,0-0.1-0.1s-0.1-0.1-0.1-0.2s-0.1-0.2-0.1-0.3s0-0.3,0-0.4c0-0.2,0-0.3,0-0.4s0-0.2,0.1-0.3
	c0.1-0.1,0.1-0.1,0.1-0.2s0.1,0,0.1,0h8c0.1,0,0.1,0,0.1,0s0.1,0.1,0.1,0.2s0.1,0.2,0.1,0.3C206.5,90.9,206.5,91.1,206.5,91.2z"/>
<path class="st1" d="M216.5,100.8c0.1,0.2,0.1,0.4,0.1,0.5s0,0.2-0.1,0.3s-0.2,0.1-0.3,0.1s-0.4,0-0.7,0s-0.5,0-0.7,0
	s-0.3,0-0.4-0.1s-0.1-0.1-0.2-0.1s-0.1-0.1-0.1-0.2l-0.8-2.3h-4.2l-0.7,2.2c0,0.1-0.1,0.2-0.1,0.2s-0.1,0.1-0.2,0.1
	c-0.1,0-0.2,0.1-0.4,0.1s-0.4,0-0.6,0c-0.3,0-0.5,0-0.6,0c-0.1,0-0.3-0.1-0.3-0.1s-0.1-0.2-0.1-0.3s0.1-0.3,0.1-0.5l3.5-10.1
	c0-0.1,0.1-0.2,0.1-0.2s0.1-0.1,0.2-0.1c0.1,0,0.2-0.1,0.4-0.1s0.4,0,0.7,0s0.6,0,0.8,0s0.4,0,0.5,0.1c0.1,0,0.2,0.1,0.2,0.1
	s0.1,0.2,0.1,0.3L216.5,100.8z M211.3,92.5L211.3,92.5l-1.6,4.8h3.2L211.3,92.5z"/>
<path class="st1" d="M225,100.7c0,0.2,0,0.3,0,0.4s0,0.2-0.1,0.3s-0.1,0.1-0.1,0.2c0,0-0.1,0.1-0.2,0.1h-5.2c-0.2,0-0.4-0.1-0.5-0.2
	s-0.2-0.3-0.2-0.6V90.6c0-0.1,0-0.1,0.1-0.2c0,0,0.1-0.1,0.2-0.1s0.2-0.1,0.4-0.1c0.1,0,0.3,0,0.6,0c0.2,0,0.4,0,0.6,0
	s0.3,0,0.4,0.1s0.2,0.1,0.2,0.1s0.1,0.1,0.1,0.2v9.1h3.6c0.1,0,0.1,0,0.2,0c0,0,0.1,0.1,0.1,0.2s0.1,0.2,0.1,0.3
	C225,100.4,225,100.5,225,100.7z"/>
</svg>
