<?xml version="1.0" encoding="utf-8"?>
<!-- Generator: Adobe Illustrator 16.0.0, SVG Export Plug-In . SVG Version: 6.00 Build 0)  -->
<!DOCTYPE svg PUBLIC "-//W3C//DTD SVG 1.1//EN" "http://www.w3.org/Graphics/SVG/1.1/DTD/svg11.dtd">
<svg version="1.1" id="Layer_1" xmlns="http://www.w3.org/2000/svg" xmlns:xlink="http://www.w3.org/1999/xlink" x="0px" y="0px"
	 width="122px" height="107.5px" viewBox="0 0 122 107.5" style="enable-background:new 0 0 122 107.5;" xml:space="preserve">
<style type="text/css">
<![CDATA[
	.st0{clip-path:url(#SVGID_70_);fill:#FFFFFF;}
	.st1{clip-path:url(#SVGID_2_);fill:none;stroke:#E0E0E1;}
	.st2{clip-path:url(#SVGID_64_);fill:#ED008C;}
	.st3{clip-path:url(#SVGID_98_);fill:#828587;}
	.st4{clip-path:url(#SVGID_2_);fill:none;stroke:#1C3661;stroke-width:2;stroke-miterlimit:10;}
	.st5{clip-path:url(#SVGID_44_);fill:#E8EBEB;}
	.st6{clip-path:url(#SVGID_82_);fill:#FFFFFF;}
	.st7{clip-path:url(#SVGID_54_);fill:#1C3661;}
	.st8{clip-path:url(#SVGID_2_);fill:none;stroke:#828587;}
	.st9{clip-path:url(#SVGID_100_);fill:#4D4D4F;}
	.st10{clip-path:url(#SVGID_72_);fill:#FFFFFF;}
	.st11{clip-path:url(#SVGID_110_);fill:#ED008C;}
	.st12{fill:#1C3661;}
	.st13{clip-path:url(#SVGID_112_);fill:#E71E88;}
	.st14{clip-path:url(#SVGID_2_);fill:none;stroke:#FFFFFF;stroke-width:2;stroke-miterlimit:10;}
	.st15{clip-path:url(#SVGID_2_);fill:#E6E7E7;}
	.st16{clip-path:url(#SVGID_24_);fill:#E8EBEB;}
	.st17{clip-path:url(#SVGID_2_);fill:#4D4D4F;}
	.st18{clip-path:url(#SVGID_38_);fill:none;stroke:#1C3661;stroke-width:2;stroke-miterlimit:10;}
	.st19{clip-path:url(#SVGID_102_);fill:#4D4D4F;}
	.st20{clip-path:url(#SVGID_2_);fill:#828587;}
	.st21{clip-path:url(#SVGID_78_);fill:#ED008C;}
	.st22{clip-path:url(#SVGID_30_);fill:#FFFFFF;}
	.st23{clip-path:url(#SVGID_74_);fill:#FFFFFF;}
	.st24{clip-path:url(#SVGID_2_);fill:#1C3661;}
	.st25{clip-path:url(#SVGID_24_);fill:#ED0080;}
	.st26{clip-path:url(#SVGID_2_);fill:none;stroke:#BDBFC4;stroke-width:2;stroke-miterlimit:10;}
	.st27{clip-path:url(#SVGID_2_);fill:#ED0080;}
	.st28{clip-path:url(#SVGID_2_);fill:none;stroke:#ED0080;stroke-width:2;stroke-miterlimit:10;}
	.st29{clip-path:url(#SVGID_42_);fill:#FFFFFF;}
	.st30{clip-path:url(#SVGID_26_);fill:#E8EBEB;}
	.st31{clip-path:url(#SVGID_64_);fill:#FFFFFF;}
	.st32{clip-path:url(#SVGID_26_);fill:none;stroke:#1C3661;stroke-width:2;stroke-miterlimit:10;}
	.st33{clip-path:url(#SVGID_36_);fill:none;stroke:#1C3661;stroke-width:2;stroke-miterlimit:10;}
	.st34{clip-path:url(#SVGID_46_);fill:none;stroke:#1C3661;stroke-width:2;stroke-miterlimit:10;}
	.st35{opacity:0.85;clip-path:url(#SVGID_48_);}
	.st36{opacity:0.85;clip-path:url(#SVGID_52_);}
	.st37{opacity:0.85;clip-path:url(#SVGID_56_);}
	.st38{opacity:0.85;clip-path:url(#SVGID_60_);}
	.st39{clip-path:url(#SVGID_58_);fill:#1C3661;}
	.st40{clip-path:url(#SVGID_2_);}
	.st41{clip-path:url(#SVGID_4_);}
	.st42{clip-path:url(#SVGID_8_);}
	.st43{clip-path:url(#SVGID_104_);fill:#4D4D4F;}
	.st44{clip-path:url(#SVGID_2_);fill:none;stroke:#C1C2C3;}
	.st45{clip-path:url(#SVGID_2_);fill:#BDBFC4;}
	.st46{clip-path:url(#SVGID_76_);fill:#FFFFFF;}
	.st47{clip-path:url(#SVGID_24_);fill:none;stroke:#1C3661;stroke-width:2;stroke-miterlimit:10;}
	.st48{clip-path:url(#SVGID_34_);fill:none;stroke:#1C3661;stroke-width:2;stroke-miterlimit:10;}
	.st49{clip-path:url(#SVGID_66_);fill:#FFFFFF;}
	.st50{clip-path:url(#SVGID_48_);fill:none;stroke:#BDBFC4;stroke-width:2;stroke-miterlimit:10;}
	.st51{clip-path:url(#SVGID_106_);fill:#4D4D4F;}
	.st52{clip-path:url(#SVGID_32_);fill:none;stroke:#1C3661;stroke-width:2;stroke-miterlimit:10;}
	.st53{clip-path:url(#SVGID_42_);fill:none;stroke:#1C3661;stroke-width:2;stroke-miterlimit:10;}
	.st54{clip-path:url(#SVGID_28_);fill:#ED0080;}
	.st55{clip-path:url(#SVGID_82_);fill:#173B66;}
	.st56{clip-path:url(#SVGID_24_);fill:#FFFFFF;}
	.st57{clip-path:url(#SVGID_2_);fill:#FFFFFF;}
	.st58{clip-path:url(#SVGID_68_);fill:#FFFFFF;}
	.st59{clip-path:url(#SVGID_82_);fill:#828587;}
	.st60{clip-path:url(#SVGID_108_);fill:#4D4D4F;}
	.st61{clip-path:url(#SVGID_36_);fill:#FFFFFF;}
	.st62{clip-path:url(#SVGID_30_);fill:none;stroke:#1C3661;stroke-width:2;stroke-miterlimit:10;}
	.st63{clip-path:url(#SVGID_40_);fill:none;stroke:#1C3661;stroke-width:2;stroke-miterlimit:10;}
	.st64{clip-path:url(#SVGID_82_);fill:#ED008C;}
	.st65{clip-path:url(#SVGID_26_);fill:#FFFFFF;}
	.st66{clip-path:url(#SVGID_50_);fill:#1C3661;}
	.st67{clip-path:url(#SVGID_12_);}
	.st68{clip-path:url(#SVGID_16_);}
	.st69{clip-path:url(#SVGID_82_);}
	.st70{clip-path:url(#SVGID_84_);}
	.st71{clip-path:url(#SVGID_86_);}
	.st72{clip-path:url(#SVGID_30_);fill:#E8EBEB;}
	.st73{clip-path:url(#SVGID_62_);fill:#1C3661;}
	.st74{clip-path:url(#SVGID_42_);fill:#E8EBEB;}
	.st75{clip-path:url(#SVGID_80_);fill:#FFFFFF;}
]]>
</style>
<g>
	<defs>
		<rect id="SVGID_1_" x="-245.5" y="-523.4" width="1280" height="1966.4"/>
	</defs>
	<clipPath id="SVGID_2_">
		<use xlink:href="#SVGID_1_"  style="overflow:visible;"/>
	</clipPath>
	<g class="st40">
		<defs>
			<rect id="SVGID_19_" x="-245.5" y="-367.4" width="1280" height="480"/>
		</defs>
		<clipPath id="SVGID_4_">
			<use xlink:href="#SVGID_19_"  style="overflow:visible;"/>
		</clipPath>
	</g>
	<g class="st40">
		<defs>
			<rect id="SVGID_21_" x="-245.5" y="-523.4" width="1280" height="1966.4"/>
		</defs>
		<clipPath id="SVGID_6_">
			<use xlink:href="#SVGID_21_"  style="overflow:visible;"/>
		</clipPath>
	</g>
	<g class="st40">
		<path class="st12" d="M15.1,96.7c0,0.9-0.1,1.8-0.4,2.5s-0.6,1.4-1,1.9s-1,0.9-1.7,1.2s-1.5,0.4-2.4,0.4c-0.9,0-1.7-0.1-2.3-0.3
			s-1.2-0.6-1.6-1.1s-0.8-1.1-1-1.8s-0.3-1.6-0.3-2.6c0-0.9,0.1-1.7,0.4-2.5s0.6-1.4,1-1.9s1-0.9,1.7-1.2S8.9,91,9.8,91
			c0.9,0,1.6,0.1,2.3,0.3s1.2,0.6,1.7,1.1s0.8,1.1,1,1.8S15.1,95.8,15.1,96.7z M12.6,96.9c0-0.6,0-1.1-0.1-1.6S12.2,94.3,12,94
			s-0.5-0.6-0.9-0.8s-0.8-0.3-1.4-0.3c-0.6,0-1,0.1-1.4,0.3s-0.7,0.5-0.9,0.9S7,94.8,6.9,95.3s-0.1,1-0.1,1.5c0,0.6,0,1.2,0.1,1.7
			s0.3,0.9,0.5,1.3s0.5,0.6,0.9,0.8s0.8,0.3,1.4,0.3s1-0.1,1.4-0.3s0.7-0.5,0.9-0.9s0.4-0.8,0.5-1.3S12.6,97.4,12.6,96.9z"/>
		<path class="st12" d="M27.1,101.8c0,0.1,0,0.3-0.1,0.4s-0.1,0.2-0.2,0.3s-0.2,0.1-0.3,0.2s-0.2,0-0.3,0h-1c-0.2,0-0.4,0-0.5-0.1
			s-0.3-0.1-0.4-0.2s-0.2-0.3-0.4-0.4s-0.2-0.4-0.4-0.7l-2.8-5.3c-0.2-0.3-0.3-0.7-0.5-1s-0.3-0.7-0.5-1.1h0c0,0.4,0,0.8,0.1,1.3
			s0,0.9,0,1.3v6c0,0.1,0,0.1,0,0.2s-0.1,0.1-0.2,0.1s-0.2,0.1-0.3,0.1s-0.3,0-0.5,0c-0.2,0-0.4,0-0.5,0s-0.2,0-0.3-0.1
			s-0.1-0.1-0.2-0.1s0-0.1,0-0.2V92c0-0.3,0.1-0.5,0.2-0.6s0.4-0.2,0.6-0.2h1.2c0.2,0,0.4,0,0.6,0.1s0.3,0.1,0.4,0.2
			s0.2,0.2,0.3,0.4s0.2,0.3,0.3,0.6l2.2,4.2c0.1,0.3,0.3,0.5,0.4,0.7s0.2,0.5,0.4,0.7s0.2,0.5,0.3,0.7s0.2,0.5,0.3,0.7h0
			c0-0.4,0-0.8,0-1.3s0-0.9,0-1.3v-5.3c0-0.1,0-0.1,0.1-0.2s0.1-0.1,0.2-0.1s0.2-0.1,0.3-0.1s0.3,0,0.5,0c0.2,0,0.4,0,0.5,0
			s0.2,0,0.3,0.1s0.1,0.1,0.2,0.1s0,0.1,0,0.2V101.8z"/>
		<path class="st12" d="M36.5,101.6c0,0.2,0,0.3,0,0.4s0,0.2-0.1,0.3s-0.1,0.1-0.1,0.2s-0.1,0.1-0.2,0.1h-5.2
			c-0.2,0-0.4-0.1-0.5-0.2s-0.2-0.3-0.2-0.6V91.5c0-0.1,0-0.1,0.1-0.2s0.1-0.1,0.2-0.1s0.2-0.1,0.4-0.1s0.3,0,0.6,0
			c0.2,0,0.4,0,0.6,0s0.3,0,0.4,0.1s0.2,0.1,0.2,0.1s0.1,0.1,0.1,0.2v9.1h3.6c0.1,0,0.1,0,0.2,0s0.1,0.1,0.1,0.2s0.1,0.2,0.1,0.3
			S36.5,101.4,36.5,101.6z"/>
		<path class="st12" d="M40.9,102.2c0,0.1,0,0.1-0.1,0.2s-0.1,0.1-0.2,0.1s-0.2,0.1-0.4,0.1s-0.3,0-0.6,0c-0.2,0-0.4,0-0.6,0
			s-0.3,0-0.4-0.1s-0.2-0.1-0.2-0.1s-0.1-0.1-0.1-0.2V91.5c0-0.1,0-0.1,0.1-0.2s0.1-0.1,0.2-0.1s0.2-0.1,0.4-0.1s0.3,0,0.6,0
			c0.2,0,0.4,0,0.6,0s0.3,0,0.4,0.1s0.2,0.1,0.2,0.1s0.1,0.1,0.1,0.2V102.2z"/>
		<path class="st12" d="M53.4,101.8c0,0.1,0,0.3-0.1,0.4s-0.1,0.2-0.2,0.3s-0.2,0.1-0.3,0.2s-0.2,0-0.3,0h-1c-0.2,0-0.4,0-0.5-0.1
			s-0.3-0.1-0.4-0.2s-0.2-0.3-0.4-0.4s-0.2-0.4-0.4-0.7L47,95.8c-0.2-0.3-0.3-0.7-0.5-1s-0.3-0.7-0.5-1.1h0c0,0.4,0,0.8,0.1,1.3
			s0,0.9,0,1.3v6c0,0.1,0,0.1,0,0.2s-0.1,0.1-0.2,0.1s-0.2,0.1-0.3,0.1s-0.3,0-0.5,0c-0.2,0-0.4,0-0.5,0s-0.2,0-0.3-0.1
			s-0.1-0.1-0.2-0.1s0-0.1,0-0.2V92c0-0.3,0.1-0.5,0.2-0.6s0.4-0.2,0.6-0.2h1.2c0.2,0,0.4,0,0.6,0.1s0.3,0.1,0.4,0.2
			s0.2,0.2,0.3,0.4s0.2,0.3,0.3,0.6l2.2,4.2c0.1,0.3,0.3,0.5,0.4,0.7s0.2,0.5,0.4,0.7s0.2,0.5,0.3,0.7s0.2,0.5,0.3,0.7h0
			c0-0.4,0-0.8,0-1.3s0-0.9,0-1.3v-5.3c0-0.1,0-0.1,0.1-0.2s0.1-0.1,0.2-0.1s0.2-0.1,0.3-0.1s0.3,0,0.5,0c0.2,0,0.4,0,0.5,0
			s0.2,0,0.3,0.1s0.1,0.1,0.2,0.1s0,0.1,0,0.2V101.8z"/>
		<path class="st12" d="M63.4,101.7c0,0.2,0,0.3,0,0.4s0,0.2-0.1,0.3s-0.1,0.1-0.1,0.2s-0.1,0-0.1,0h-5.7c-0.2,0-0.4-0.1-0.5-0.2
			s-0.2-0.3-0.2-0.6v-9.9c0-0.3,0.1-0.4,0.2-0.6s0.3-0.2,0.5-0.2H63c0.1,0,0.1,0,0.1,0s0.1,0.1,0.1,0.2s0.1,0.2,0.1,0.3s0,0.3,0,0.4
			c0,0.2,0,0.3,0,0.4s0,0.2-0.1,0.3s-0.1,0.1-0.1,0.2S63,93,63,93h-4.1v2.8h3.4c0.1,0,0.1,0,0.1,0s0.1,0.1,0.1,0.1s0.1,0.2,0.1,0.3
			s0,0.3,0,0.4c0,0.2,0,0.3,0,0.4s0,0.2-0.1,0.3s-0.1,0.1-0.1,0.1s-0.1,0-0.1,0h-3.4v3.2H63c0.1,0,0.1,0,0.1,0s0.1,0.1,0.1,0.2
			s0.1,0.2,0.1,0.3S63.4,101.5,63.4,101.7z"/>
		<path class="st12" d="M79.3,96.7c0,1-0.1,1.9-0.4,2.7s-0.7,1.3-1.2,1.8s-1.1,0.8-1.9,1s-1.6,0.3-2.6,0.3h-2.7
			c-0.2,0-0.4-0.1-0.5-0.2s-0.2-0.3-0.2-0.6v-9.9c0-0.3,0.1-0.4,0.2-0.6s0.3-0.2,0.5-0.2h2.9c1,0,1.9,0.1,2.6,0.4s1.3,0.6,1.8,1.1
			s0.9,1,1.1,1.7S79.3,95.8,79.3,96.7z M76.9,96.8c0-0.5-0.1-1-0.2-1.5s-0.3-0.9-0.6-1.2s-0.6-0.6-1.1-0.8S74,93,73.3,93h-1.2v7.7
			h1.2c0.6,0,1.2-0.1,1.6-0.2s0.8-0.4,1.1-0.7s0.5-0.7,0.7-1.2S76.9,97.4,76.9,96.8z"/>
		<path class="st12" d="M88.6,101.7c0,0.2,0,0.3,0,0.4s0,0.2-0.1,0.3s-0.1,0.1-0.1,0.2s-0.1,0-0.1,0h-5.7c-0.2,0-0.4-0.1-0.5-0.2
			s-0.2-0.3-0.2-0.6v-9.9c0-0.3,0.1-0.4,0.2-0.6s0.3-0.2,0.5-0.2h5.7c0.1,0,0.1,0,0.1,0s0.1,0.1,0.1,0.2s0.1,0.2,0.1,0.3
			s0,0.3,0,0.4c0,0.2,0,0.3,0,0.4s0,0.2-0.1,0.3s-0.1,0.1-0.1,0.2s-0.1,0-0.1,0h-4.1v2.8h3.4c0.1,0,0.1,0,0.1,0s0.1,0.1,0.1,0.1
			s0.1,0.2,0.1,0.3s0,0.3,0,0.4c0,0.2,0,0.3,0,0.4s0,0.2-0.1,0.3s-0.1,0.1-0.1,0.1s-0.1,0-0.1,0h-3.4v3.2h4.1c0.1,0,0.1,0,0.1,0
			s0.1,0.1,0.1,0.2s0.1,0.2,0.1,0.3S88.6,101.5,88.6,101.7z"/>
		<path class="st12" d="M104.6,102.2c0,0.1,0,0.1,0,0.2s-0.1,0.1-0.2,0.1s-0.2,0.1-0.3,0.1s-0.3,0-0.5,0c-0.2,0-0.4,0-0.5,0
			s-0.3,0-0.3-0.1s-0.1-0.1-0.2-0.1s-0.1-0.1-0.1-0.2V93h0l-3.3,9.2c0,0.1-0.1,0.1-0.1,0.2s-0.1,0.1-0.2,0.1s-0.2,0-0.3,0.1
			s-0.3,0-0.5,0s-0.4,0-0.5,0s-0.3,0-0.3-0.1s-0.2-0.1-0.2-0.1s-0.1-0.1-0.1-0.2L93.5,93h0v9.3c0,0.1,0,0.1,0,0.2s-0.1,0.1-0.2,0.1
			s-0.2,0.1-0.3,0.1s-0.3,0-0.5,0c-0.2,0-0.4,0-0.5,0s-0.3,0-0.3-0.1s-0.1-0.1-0.2-0.1s0-0.1,0-0.2V92.1c0-0.3,0.1-0.5,0.2-0.7
			s0.4-0.2,0.6-0.2h1.5c0.3,0,0.5,0,0.7,0.1s0.4,0.1,0.5,0.2s0.3,0.2,0.4,0.4s0.2,0.4,0.2,0.6l2.5,6.8h0l2.5-6.8
			c0.1-0.2,0.2-0.5,0.3-0.6s0.2-0.3,0.3-0.4s0.3-0.2,0.4-0.2s0.4-0.1,0.6-0.1h1.6c0.2,0,0.3,0,0.4,0.1s0.2,0.1,0.3,0.2
			s0.1,0.2,0.2,0.3s0.1,0.2,0.1,0.4V102.2z"/>
		<path class="st12" d="M118,96.7c0,0.9-0.1,1.8-0.4,2.5s-0.6,1.4-1,1.9s-1,0.9-1.7,1.2s-1.5,0.4-2.4,0.4c-0.9,0-1.7-0.1-2.3-0.3
			s-1.2-0.6-1.6-1.1s-0.8-1.1-1-1.8s-0.3-1.6-0.3-2.6c0-0.9,0.1-1.7,0.4-2.5s0.6-1.4,1-1.9s1-0.9,1.7-1.2s1.5-0.4,2.4-0.4
			c0.9,0,1.6,0.1,2.3,0.3s1.2,0.6,1.7,1.1s0.8,1.1,1,1.8S118,95.8,118,96.7z M115.5,96.9c0-0.6,0-1.1-0.1-1.6s-0.3-0.9-0.5-1.3
			s-0.5-0.6-0.9-0.8s-0.8-0.3-1.4-0.3c-0.6,0-1,0.1-1.4,0.3s-0.7,0.5-0.9,0.9s-0.4,0.8-0.5,1.3s-0.1,1-0.1,1.5c0,0.6,0,1.2,0.1,1.7
			s0.3,0.9,0.5,1.3s0.5,0.6,0.9,0.8s0.8,0.3,1.4,0.3s1-0.1,1.4-0.3s0.7-0.5,0.9-0.9s0.4-0.8,0.5-1.3S115.5,97.4,115.5,96.9z"/>
	</g>
	<g class="st40">
		<defs>
			<rect id="SVGID_23_" x="-245.5" y="-523.4" width="1280" height="1966.4"/>
		</defs>
		<clipPath id="SVGID_8_">
			<use xlink:href="#SVGID_23_"  style="overflow:visible;"/>
		</clipPath>
	</g>
	<g class="st40">
		<defs>
			<rect id="SVGID_25_" x="-245.5" y="-523.4" width="1280" height="1966.4"/>
		</defs>
		<clipPath id="SVGID_10_">
			<use xlink:href="#SVGID_25_"  style="overflow:visible;"/>
		</clipPath>
		<path style="clip-path:url(#SVGID_10_);fill:#E8EBEB;" d="M68.5,29.7c0,10.2-8.3,18.5-18.5,18.5c-10.2,0-18.5-8.3-18.5-18.5
			c0-10.2,8.3-18.5,18.5-18.5C60.2,11.2,68.5,19.5,68.5,29.7"/>
		<path style="clip-path:url(#SVGID_10_);fill:#FFFFFF;" d="M84.7,22.3c2.7,0,4.8,2.1,4.8,4.7v30.3h-53V27c0-2.7,1.7-4.7,4.4-4.7
			H84.7z"/>
		<path style="clip-path:url(#SVGID_10_);fill:none;stroke:#1C3661;stroke-width:2;stroke-miterlimit:10;" d="M84.7,22.3
			c2.7,0,4.8,2.1,4.8,4.7v30.3h-53V27c0-2.7,1.7-4.7,4.4-4.7H84.7z"/>
		<path style="clip-path:url(#SVGID_10_);fill:#FFFFFF;" d="M93.5,57.3h-62v1c0,3.5,2.8,7,6.3,7h49.3c3.5,0,6.3-3.5,6.3-7V57.3z"/>
		<path style="clip-path:url(#SVGID_10_);fill:none;stroke:#1C3661;stroke-width:2;stroke-miterlimit:10;" d="M93.5,57.3h-62v1
			c0,3.5,2.8,7,6.3,7h49.3c3.5,0,6.3-3.5,6.3-7V57.3z"/>
	</g>
	<path class="st4" d="M40.5,54.3v-28h18 M85.5,37.3v17 M58.5,61.3h11"/>
	<g class="st40">
		<defs>
			<rect id="SVGID_27_" x="-245.5" y="-523.4" width="1280" height="1966.4"/>
		</defs>
		<clipPath id="SVGID_12_">
			<use xlink:href="#SVGID_27_"  style="overflow:visible;"/>
		</clipPath>
		<path style="clip-path:url(#SVGID_12_);fill:#ED0080;" d="M93.5,15.3v16.1c0,1.6-1.3,2.9-2.9,2.9H74.4L68.3,42
			c-0.6,0.7-1.8,0.3-1.8-0.6v-7.1h-2c-1.7,0-3-1.4-3-3v-16c0-1.7,1.3-3,3-3h26C92.2,12.3,93.5,13.7,93.5,15.3"/>
	</g>
	<path class="st14" d="M80.5,23.3h2 M76.5,23.3h2 M72.5,23.3h2"/>
	<g class="st40">
		<defs>
			<rect id="SVGID_29_" x="-245.5" y="-523.4" width="1280" height="1966.4"/>
		</defs>
		<clipPath id="SVGID_14_">
			<use xlink:href="#SVGID_29_"  style="overflow:visible;"/>
		</clipPath>
		<path style="clip-path:url(#SVGID_14_);fill:#E8EBEB;" d="M53.5,43.3c-2.2,0-9,2.1-9,4.8v6.2h18v-6.2
			C62.5,45.4,55.7,43.3,53.5,43.3"/>
		<path style="clip-path:url(#SVGID_14_);fill:none;stroke:#1C3661;stroke-width:2;stroke-miterlimit:10;" d="M62.5,54.3v-6.2
			c0-2.7-6.8-4.8-9-4.8s-9,2.1-9,4.8v6.2"/>
		<path style="clip-path:url(#SVGID_14_);fill:#FFFFFF;" d="M58.5,35.8c0-2.5-2-4.5-4.5-4.5s-4.5,2-4.5,4.5v3c0,2.5,2,4.5,4.5,4.5
			s4.5-2,4.5-4.5V35.8z"/>
		<path style="clip-path:url(#SVGID_14_);fill:none;stroke:#1C3661;stroke-width:2;stroke-miterlimit:10;" d="M58.5,35.8
			c0-2.5-2-4.5-4.5-4.5s-4.5,2-4.5,4.5v3c0,2.5,2,4.5,4.5,4.5s4.5-2,4.5-4.5V35.8z"/>
	</g>
	<g class="st40">
		<defs>
			<rect id="SVGID_31_" x="-245.5" y="-523.4" width="1280" height="1966.4"/>
		</defs>
		<clipPath id="SVGID_16_">
			<use xlink:href="#SVGID_31_"  style="overflow:visible;"/>
		</clipPath>
	</g>
	<g class="st40">
		<defs>
			<rect id="SVGID_33_" x="-245.5" y="-523.4" width="1280" height="1966.4"/>
		</defs>
		<clipPath id="SVGID_18_">
			<use xlink:href="#SVGID_33_"  style="overflow:visible;"/>
		</clipPath>
	</g>
	<g class="st40">
		<defs>
			<rect id="SVGID_35_" x="-245.5" y="-523.4" width="1280" height="1966.4"/>
		</defs>
		<clipPath id="SVGID_20_">
			<use xlink:href="#SVGID_35_"  style="overflow:visible;"/>
		</clipPath>
	</g>
	<g class="st40">
		<defs>
			<rect id="SVGID_37_" x="-245.5" y="-523.4" width="1280" height="1966.4"/>
		</defs>
		<clipPath id="SVGID_22_">
			<use xlink:href="#SVGID_37_"  style="overflow:visible;"/>
		</clipPath>
	</g>
	<g class="st40">
		<defs>
			<rect id="SVGID_39_" x="-245.5" y="-523.4" width="1280" height="1966.4"/>
		</defs>
		<clipPath id="SVGID_24_">
			<use xlink:href="#SVGID_39_"  style="overflow:visible;"/>
		</clipPath>
	</g>
	<g class="st40">
		<defs>
			<rect id="SVGID_41_" x="-245.5" y="-523.4" width="1280" height="1966.4"/>
		</defs>
		<clipPath id="SVGID_26_">
			<use xlink:href="#SVGID_41_"  style="overflow:visible;"/>
		</clipPath>
	</g>
	<g class="st40">
		<defs>
			<rect id="SVGID_43_" x="-245.5" y="-523.4" width="1280" height="1966.4"/>
		</defs>
		<clipPath id="SVGID_28_">
			<use xlink:href="#SVGID_43_"  style="overflow:visible;"/>
		</clipPath>
	</g>
	<g class="st40">
		<defs>
			<rect id="SVGID_45_" x="-245.5" y="-523.4" width="1280" height="1966.4"/>
		</defs>
		<clipPath id="SVGID_30_">
			<use xlink:href="#SVGID_45_"  style="overflow:visible;"/>
		</clipPath>
	</g>
	<g class="st40">
		<defs>
			<rect id="SVGID_47_" x="-245.5" y="-523.4" width="1280" height="1966.4"/>
		</defs>
		<clipPath id="SVGID_32_">
			<use xlink:href="#SVGID_47_"  style="overflow:visible;"/>
		</clipPath>
	</g>
	<g class="st40">
		<defs>
			<rect id="SVGID_51_" x="-245.5" y="-523.4" width="1280" height="1966.4"/>
		</defs>
		<clipPath id="SVGID_34_">
			<use xlink:href="#SVGID_51_"  style="overflow:visible;"/>
		</clipPath>
	</g>
	<g class="st40">
		<defs>
			<rect id="SVGID_55_" x="-245.5" y="-523.4" width="1280" height="1966.4"/>
		</defs>
		<clipPath id="SVGID_36_">
			<use xlink:href="#SVGID_55_"  style="overflow:visible;"/>
		</clipPath>
	</g>
	<g class="st40">
		<defs>
			<rect id="SVGID_59_" x="-245.5" y="-523.4" width="1280" height="1966.4"/>
		</defs>
		<clipPath id="SVGID_38_">
			<use xlink:href="#SVGID_59_"  style="overflow:visible;"/>
		</clipPath>
	</g>
	<g class="st40">
		<defs>
			<rect id="SVGID_63_" x="-245.5" y="-523.4" width="1280" height="1966.4"/>
		</defs>
		<clipPath id="SVGID_40_">
			<use xlink:href="#SVGID_63_"  style="overflow:visible;"/>
		</clipPath>
	</g>
	<g class="st40">
		<defs>
			<rect id="SVGID_65_" x="-245.5" y="-523.4" width="1280" height="1966.4"/>
		</defs>
		<clipPath id="SVGID_42_">
			<use xlink:href="#SVGID_65_"  style="overflow:visible;"/>
		</clipPath>
	</g>
	<g class="st40">
		<defs>
			<rect id="SVGID_67_" x="-245.5" y="-523.4" width="1280" height="1966.4"/>
		</defs>
		<clipPath id="SVGID_44_">
			<use xlink:href="#SVGID_67_"  style="overflow:visible;"/>
		</clipPath>
	</g>
	<g class="st40">
		<defs>
			<rect id="SVGID_69_" x="-245.5" y="-523.4" width="1280" height="1966.4"/>
		</defs>
		<clipPath id="SVGID_46_">
			<use xlink:href="#SVGID_69_"  style="overflow:visible;"/>
		</clipPath>
	</g>
	<g class="st40">
		<defs>
			<rect id="SVGID_71_" x="-245.5" y="-523.4" width="1280" height="1966.4"/>
		</defs>
		<clipPath id="SVGID_48_">
			<use xlink:href="#SVGID_71_"  style="overflow:visible;"/>
		</clipPath>
	</g>
	<g class="st40">
		<defs>
			<rect id="SVGID_73_" x="-245.5" y="-523.4" width="1280" height="1966.4"/>
		</defs>
		<clipPath id="SVGID_50_">
			<use xlink:href="#SVGID_73_"  style="overflow:visible;"/>
		</clipPath>
	</g>
	<g class="st40">
		<defs>
			<rect id="SVGID_75_" x="-245.5" y="-523.4" width="1280" height="1966.4"/>
		</defs>
		<clipPath id="SVGID_52_">
			<use xlink:href="#SVGID_75_"  style="overflow:visible;"/>
		</clipPath>
	</g>
	<g class="st40">
		<defs>
			<rect id="SVGID_77_" x="-245.5" y="-523.4" width="1280" height="1966.4"/>
		</defs>
		<clipPath id="SVGID_54_">
			<use xlink:href="#SVGID_77_"  style="overflow:visible;"/>
		</clipPath>
	</g>
	<g class="st40">
		<defs>
			<rect id="SVGID_79_" x="-245.5" y="-523.4" width="1280" height="1966.4"/>
		</defs>
		<clipPath id="SVGID_56_">
			<use xlink:href="#SVGID_79_"  style="overflow:visible;"/>
		</clipPath>
	</g>
	<g class="st40">
		<defs>
			<rect id="SVGID_81_" x="-245.5" y="-523.4" width="1280" height="1966.4"/>
		</defs>
		<clipPath id="SVGID_58_">
			<use xlink:href="#SVGID_81_"  style="overflow:visible;"/>
		</clipPath>
	</g>
	<g class="st40">
		<defs>
			<rect id="SVGID_97_" x="-245.5" y="-523.4" width="1280" height="1966.4"/>
		</defs>
		<clipPath id="SVGID_60_">
			<use xlink:href="#SVGID_97_"  style="overflow:visible;"/>
		</clipPath>
	</g>
	<g class="st40">
		<defs>
			<rect id="SVGID_99_" x="-245.5" y="-523.4" width="1280" height="1966.4"/>
		</defs>
		<clipPath id="SVGID_62_">
			<use xlink:href="#SVGID_99_"  style="overflow:visible;"/>
		</clipPath>
	</g>
	<g class="st40">
		<defs>
			<rect id="SVGID_101_" x="-245.5" y="-523.4" width="1280" height="1966.4"/>
		</defs>
		<clipPath id="SVGID_64_">
			<use xlink:href="#SVGID_101_"  style="overflow:visible;"/>
		</clipPath>
	</g>
	<g class="st40">
		<defs>
			<rect id="SVGID_103_" x="-245.5" y="-523.4" width="1280" height="1966.4"/>
		</defs>
		<clipPath id="SVGID_66_">
			<use xlink:href="#SVGID_103_"  style="overflow:visible;"/>
		</clipPath>
	</g>
	<g class="st40">
		<defs>
			<rect id="SVGID_105_" x="-245.5" y="-523.4" width="1280" height="1966.4"/>
		</defs>
		<clipPath id="SVGID_68_">
			<use xlink:href="#SVGID_105_"  style="overflow:visible;"/>
		</clipPath>
	</g>
	<g class="st40">
		<defs>
			<rect id="SVGID_107_" x="-245.5" y="-523.4" width="1280" height="1966.4"/>
		</defs>
		<clipPath id="SVGID_70_">
			<use xlink:href="#SVGID_107_"  style="overflow:visible;"/>
		</clipPath>
	</g>
	<g class="st40">
		<defs>
			<rect id="SVGID_109_" x="-245.5" y="-523.4" width="1280" height="1966.4"/>
		</defs>
		<clipPath id="SVGID_72_">
			<use xlink:href="#SVGID_109_"  style="overflow:visible;"/>
		</clipPath>
	</g>
	<g class="st40">
		<defs>
			<rect id="SVGID_111_" x="-245.5" y="-523.4" width="1280" height="1966.4"/>
		</defs>
		<clipPath id="SVGID_74_">
			<use xlink:href="#SVGID_111_"  style="overflow:visible;"/>
		</clipPath>
	</g>
</g>
</svg>
