<?xml version="1.0" encoding="utf-8"?>
<!-- Generator: Adobe Illustrator 16.0.0, SVG Export Plug-In . SVG Version: 6.00 Build 0)  -->
<!DOCTYPE svg PUBLIC "-//W3C//DTD SVG 1.1//EN" "http://www.w3.org/Graphics/SVG/1.1/DTD/svg11.dtd">
<svg version="1.1" id="Layer_1" xmlns="http://www.w3.org/2000/svg" xmlns:xlink="http://www.w3.org/1999/xlink" x="0px" y="0px"
	 width="149.5px" height="107.5px" viewBox="0 0 149.5 107.5" style="enable-background:new 0 0 149.5 107.5;" xml:space="preserve"
	>
<style type="text/css">
<![CDATA[
	.st0{clip-path:url(#SVGID_70_);fill:#FFFFFF;}
	.st1{clip-path:url(#SVGID_2_);fill:none;stroke:#E0E0E1;}
	.st2{clip-path:url(#SVGID_64_);fill:#ED008C;}
	.st3{clip-path:url(#SVGID_98_);fill:#828587;}
	.st4{clip-path:url(#SVGID_2_);fill:none;stroke:#1C3661;stroke-width:2;stroke-miterlimit:10;}
	.st5{clip-path:url(#SVGID_44_);fill:#E8EBEB;}
	.st6{clip-path:url(#SVGID_82_);fill:#FFFFFF;}
	.st7{clip-path:url(#SVGID_54_);fill:#1C3661;}
	.st8{clip-path:url(#SVGID_2_);fill:none;stroke:#828587;}
	.st9{clip-path:url(#SVGID_100_);fill:#4D4D4F;}
	.st10{clip-path:url(#SVGID_72_);fill:#FFFFFF;}
	.st11{clip-path:url(#SVGID_110_);fill:#ED008C;}
	.st12{fill:#1C3661;}
	.st13{clip-path:url(#SVGID_112_);fill:#E71E88;}
	.st14{clip-path:url(#SVGID_2_);fill:none;stroke:#FFFFFF;stroke-width:2;stroke-miterlimit:10;}
	.st15{clip-path:url(#SVGID_2_);fill:#E6E7E7;}
	.st16{clip-path:url(#SVGID_24_);fill:#E8EBEB;}
	.st17{clip-path:url(#SVGID_2_);fill:#4D4D4F;}
	.st18{clip-path:url(#SVGID_38_);fill:none;stroke:#1C3661;stroke-width:2;stroke-miterlimit:10;}
	.st19{clip-path:url(#SVGID_102_);fill:#4D4D4F;}
	.st20{clip-path:url(#SVGID_2_);fill:#828587;}
	.st21{clip-path:url(#SVGID_78_);fill:#ED008C;}
	.st22{clip-path:url(#SVGID_30_);fill:#FFFFFF;}
	.st23{clip-path:url(#SVGID_74_);fill:#FFFFFF;}
	.st24{clip-path:url(#SVGID_2_);fill:#1C3661;}
	.st25{clip-path:url(#SVGID_24_);fill:#ED0080;}
	.st26{clip-path:url(#SVGID_2_);fill:none;stroke:#BDBFC4;stroke-width:2;stroke-miterlimit:10;}
	.st27{clip-path:url(#SVGID_2_);fill:#ED0080;}
	.st28{clip-path:url(#SVGID_2_);fill:none;stroke:#ED0080;stroke-width:2;stroke-miterlimit:10;}
	.st29{clip-path:url(#SVGID_42_);fill:#FFFFFF;}
	.st30{clip-path:url(#SVGID_26_);fill:#E8EBEB;}
	.st31{clip-path:url(#SVGID_64_);fill:#FFFFFF;}
	.st32{clip-path:url(#SVGID_26_);fill:none;stroke:#1C3661;stroke-width:2;stroke-miterlimit:10;}
	.st33{clip-path:url(#SVGID_36_);fill:none;stroke:#1C3661;stroke-width:2;stroke-miterlimit:10;}
	.st34{clip-path:url(#SVGID_46_);fill:none;stroke:#1C3661;stroke-width:2;stroke-miterlimit:10;}
	.st35{opacity:0.85;clip-path:url(#SVGID_48_);}
	.st36{opacity:0.85;clip-path:url(#SVGID_52_);}
	.st37{opacity:0.85;clip-path:url(#SVGID_56_);}
	.st38{opacity:0.85;clip-path:url(#SVGID_60_);}
	.st39{clip-path:url(#SVGID_58_);fill:#1C3661;}
	.st40{clip-path:url(#SVGID_2_);}
	.st41{clip-path:url(#SVGID_4_);}
	.st42{clip-path:url(#SVGID_8_);}
	.st43{clip-path:url(#SVGID_104_);fill:#4D4D4F;}
	.st44{clip-path:url(#SVGID_2_);fill:none;stroke:#C1C2C3;}
	.st45{clip-path:url(#SVGID_2_);fill:#BDBFC4;}
	.st46{clip-path:url(#SVGID_76_);fill:#FFFFFF;}
	.st47{clip-path:url(#SVGID_24_);fill:none;stroke:#1C3661;stroke-width:2;stroke-miterlimit:10;}
	.st48{clip-path:url(#SVGID_34_);fill:none;stroke:#1C3661;stroke-width:2;stroke-miterlimit:10;}
	.st49{clip-path:url(#SVGID_66_);fill:#FFFFFF;}
	.st50{clip-path:url(#SVGID_48_);fill:none;stroke:#BDBFC4;stroke-width:2;stroke-miterlimit:10;}
	.st51{clip-path:url(#SVGID_106_);fill:#4D4D4F;}
	.st52{clip-path:url(#SVGID_32_);fill:none;stroke:#1C3661;stroke-width:2;stroke-miterlimit:10;}
	.st53{clip-path:url(#SVGID_42_);fill:none;stroke:#1C3661;stroke-width:2;stroke-miterlimit:10;}
	.st54{clip-path:url(#SVGID_28_);fill:#ED0080;}
	.st55{clip-path:url(#SVGID_82_);fill:#173B66;}
	.st56{clip-path:url(#SVGID_24_);fill:#FFFFFF;}
	.st57{clip-path:url(#SVGID_2_);fill:#FFFFFF;}
	.st58{clip-path:url(#SVGID_68_);fill:#FFFFFF;}
	.st59{clip-path:url(#SVGID_82_);fill:#828587;}
	.st60{clip-path:url(#SVGID_108_);fill:#4D4D4F;}
	.st61{clip-path:url(#SVGID_36_);fill:#FFFFFF;}
	.st62{clip-path:url(#SVGID_30_);fill:none;stroke:#1C3661;stroke-width:2;stroke-miterlimit:10;}
	.st63{clip-path:url(#SVGID_40_);fill:none;stroke:#1C3661;stroke-width:2;stroke-miterlimit:10;}
	.st64{clip-path:url(#SVGID_82_);fill:#ED008C;}
	.st65{clip-path:url(#SVGID_26_);fill:#FFFFFF;}
	.st66{clip-path:url(#SVGID_50_);fill:#1C3661;}
	.st67{clip-path:url(#SVGID_12_);}
	.st68{clip-path:url(#SVGID_16_);}
	.st69{clip-path:url(#SVGID_82_);}
	.st70{clip-path:url(#SVGID_84_);}
	.st71{clip-path:url(#SVGID_86_);}
	.st72{clip-path:url(#SVGID_30_);fill:#E8EBEB;}
	.st73{clip-path:url(#SVGID_62_);fill:#1C3661;}
	.st74{clip-path:url(#SVGID_42_);fill:#E8EBEB;}
	.st75{clip-path:url(#SVGID_80_);fill:#FFFFFF;}
]]>
</style>
<g>
	<defs>
		<rect id="SVGID_1_" x="-229.5" y="-644.4" width="1280" height="1966.4"/>
	</defs>
	<clipPath id="SVGID_2_">
		<use xlink:href="#SVGID_1_"  style="overflow:visible;"/>
	</clipPath>
	<g class="st40">
		<defs>
			<rect id="SVGID_21_" x="-229.5" y="-644.4" width="1280" height="1966.4"/>
		</defs>
		<clipPath id="SVGID_4_">
			<use xlink:href="#SVGID_21_"  style="overflow:visible;"/>
		</clipPath>
	</g>
	<g class="st40">
		<path class="st12" d="M34.3,99.8c0,0.1,0,0.3,0,0.4s0,0.2,0,0.3s0,0.1-0.1,0.2s-0.1,0.1-0.1,0.2s-0.2,0.2-0.4,0.3
			s-0.4,0.2-0.7,0.3s-0.6,0.2-0.9,0.2s-0.7,0.1-1.1,0.1c-0.8,0-1.5-0.1-2.1-0.4s-1.2-0.6-1.6-1.1s-0.8-1.1-1-1.8S25.9,97,25.9,96
			c0-1,0.1-1.8,0.4-2.6s0.6-1.4,1.1-1.9s1-0.9,1.7-1.2s1.4-0.4,2.1-0.4c0.3,0,0.6,0,0.9,0.1s0.6,0.1,0.8,0.2s0.5,0.2,0.7,0.3
			s0.3,0.2,0.4,0.3s0.1,0.1,0.2,0.2s0.1,0.1,0.1,0.2s0,0.2,0,0.3s0,0.2,0,0.4c0,0.2,0,0.3,0,0.4s0,0.2-0.1,0.3s-0.1,0.1-0.1,0.2
			s-0.1,0.1-0.1,0.1c-0.1,0-0.2-0.1-0.3-0.2s-0.3-0.2-0.5-0.3s-0.5-0.2-0.8-0.3S31.6,92,31.2,92c-0.5,0-0.9,0.1-1.2,0.3
			s-0.7,0.4-0.9,0.8s-0.4,0.8-0.6,1.2s-0.2,1-0.2,1.6c0,0.7,0.1,1.2,0.2,1.7s0.3,0.9,0.6,1.2s0.6,0.6,0.9,0.7s0.8,0.2,1.2,0.2
			c0.4,0,0.8,0,1.1-0.1s0.6-0.2,0.8-0.3s0.4-0.2,0.5-0.3s0.2-0.1,0.3-0.1c0.1,0,0.1,0,0.1,0s0.1,0.1,0.1,0.1s0,0.2,0.1,0.3
			S34.3,99.6,34.3,99.8z"/>
		<path class="st12" d="M46.7,95.8c0,0.9-0.1,1.8-0.4,2.5s-0.6,1.4-1,1.9s-1,0.9-1.7,1.2s-1.5,0.4-2.4,0.4c-0.9,0-1.7-0.1-2.3-0.3
			s-1.2-0.6-1.6-1.1s-0.8-1.1-1-1.8S36,97,36,96c0-0.9,0.1-1.7,0.4-2.5s0.6-1.4,1-1.9s1-0.9,1.7-1.2s1.5-0.4,2.4-0.4
			c0.9,0,1.6,0.1,2.3,0.3s1.2,0.6,1.7,1.1s0.8,1.1,1,1.8S46.7,94.8,46.7,95.8z M44.3,95.9c0-0.6,0-1.1-0.1-1.6s-0.3-0.9-0.5-1.3
			s-0.5-0.6-0.9-0.8s-0.8-0.3-1.4-0.3c-0.6,0-1,0.1-1.4,0.3s-0.7,0.5-0.9,0.9s-0.4,0.8-0.5,1.3s-0.1,1-0.1,1.5c0,0.6,0,1.2,0.1,1.7
			s0.3,0.9,0.5,1.3s0.5,0.6,0.9,0.8s0.8,0.3,1.4,0.3s1-0.1,1.4-0.3s0.7-0.5,0.9-0.9s0.4-0.8,0.5-1.3S44.3,96.4,44.3,95.9z"/>
		<path class="st12" d="M58.7,100.8c0,0.1,0,0.3-0.1,0.4s-0.1,0.2-0.2,0.3s-0.2,0.1-0.3,0.2s-0.2,0-0.3,0h-1c-0.2,0-0.4,0-0.5-0.1
			s-0.3-0.1-0.4-0.2s-0.2-0.3-0.4-0.4s-0.2-0.4-0.4-0.7l-2.8-5.3c-0.2-0.3-0.3-0.7-0.5-1s-0.3-0.7-0.5-1.1h0c0,0.4,0,0.8,0.1,1.3
			s0,0.9,0,1.3v6c0,0.1,0,0.1,0,0.2s-0.1,0.1-0.2,0.1s-0.2,0.1-0.3,0.1s-0.3,0-0.5,0c-0.2,0-0.4,0-0.5,0s-0.2,0-0.3-0.1
			s-0.1-0.1-0.2-0.1s0-0.1,0-0.2V91c0-0.3,0.1-0.5,0.2-0.6s0.4-0.2,0.6-0.2h1.2c0.2,0,0.4,0,0.6,0.1s0.3,0.1,0.4,0.2
			s0.2,0.2,0.3,0.4s0.2,0.3,0.3,0.6l2.2,4.2c0.1,0.3,0.3,0.5,0.4,0.7s0.2,0.5,0.4,0.7s0.2,0.5,0.3,0.7s0.2,0.5,0.3,0.7h0
			c0-0.4,0-0.8,0-1.3s0-0.9,0-1.3v-5.3c0-0.1,0-0.1,0.1-0.2s0.1-0.1,0.2-0.1s0.2-0.1,0.3-0.1s0.3,0,0.5,0c0.2,0,0.4,0,0.5,0
			s0.2,0,0.3,0.1s0.1,0.1,0.2,0.1s0,0.1,0,0.2V100.8z"/>
		<path class="st12" d="M69.5,91.1c0,0.2,0,0.3,0,0.4s0,0.2-0.1,0.3S69.3,92,69.3,92s-0.1,0.1-0.1,0.1h-2.8v9.2c0,0.1,0,0.1-0.1,0.2
			s-0.1,0.1-0.2,0.1s-0.2,0.1-0.4,0.1s-0.3,0-0.6,0s-0.4,0-0.6,0s-0.3,0-0.4-0.1s-0.2-0.1-0.2-0.1s-0.1-0.1-0.1-0.2v-9.2h-2.8
			c-0.1,0-0.1,0-0.1-0.1s-0.1-0.1-0.1-0.2s-0.1-0.2-0.1-0.3s0-0.3,0-0.4c0-0.2,0-0.3,0-0.4s0-0.2,0.1-0.3s0.1-0.1,0.1-0.2
			s0.1,0,0.1,0h8c0.1,0,0.1,0,0.1,0s0.1,0.1,0.1,0.2s0.1,0.2,0.1,0.3S69.5,91,69.5,91.1z"/>
		<path class="st12" d="M79.4,100.7c0.1,0.2,0.1,0.4,0.1,0.5s0,0.2-0.1,0.3s-0.2,0.1-0.3,0.1s-0.4,0-0.7,0c-0.3,0-0.5,0-0.7,0
			s-0.3,0-0.4-0.1s-0.1-0.1-0.2-0.1s-0.1-0.1-0.1-0.2L76.4,99h-4.3l-0.7,2.2c0,0.1-0.1,0.2-0.1,0.2s-0.1,0.1-0.2,0.1
			s-0.2,0.1-0.4,0.1s-0.4,0-0.6,0c-0.3,0-0.5,0-0.6,0s-0.3-0.1-0.3-0.1s-0.1-0.2-0.1-0.3s0.1-0.3,0.1-0.5l3.5-10.1
			c0-0.1,0.1-0.2,0.1-0.2s0.1-0.1,0.2-0.1s0.2-0.1,0.4-0.1s0.4,0,0.7,0c0.3,0,0.6,0,0.8,0s0.4,0,0.5,0.1s0.2,0.1,0.2,0.1
			s0.1,0.2,0.1,0.3L79.4,100.7z M74.2,92.4L74.2,92.4l-1.6,4.8h3.2L74.2,92.4z"/>
		<path class="st12" d="M89.4,99.8c0,0.1,0,0.3,0,0.4s0,0.2,0,0.3s0,0.1-0.1,0.2s-0.1,0.1-0.1,0.2s-0.2,0.2-0.4,0.3
			s-0.4,0.2-0.7,0.3s-0.6,0.2-0.9,0.2s-0.7,0.1-1.1,0.1c-0.8,0-1.5-0.1-2.1-0.4s-1.2-0.6-1.6-1.1s-0.8-1.1-1-1.8S81,97,81,96
			c0-1,0.1-1.8,0.4-2.6s0.6-1.4,1.1-1.9s1-0.9,1.7-1.2s1.4-0.4,2.1-0.4c0.3,0,0.6,0,0.9,0.1s0.6,0.1,0.8,0.2s0.5,0.2,0.7,0.3
			s0.3,0.2,0.4,0.3s0.1,0.1,0.2,0.2s0.1,0.1,0.1,0.2s0,0.2,0,0.3s0,0.2,0,0.4c0,0.2,0,0.3,0,0.4s0,0.2-0.1,0.3s-0.1,0.1-0.1,0.2
			s-0.1,0.1-0.1,0.1c-0.1,0-0.2-0.1-0.3-0.2s-0.3-0.2-0.5-0.3s-0.5-0.2-0.8-0.3S86.7,92,86.3,92c-0.5,0-0.9,0.1-1.2,0.3
			s-0.7,0.4-0.9,0.8s-0.4,0.8-0.6,1.2s-0.2,1-0.2,1.6c0,0.7,0.1,1.2,0.2,1.7s0.3,0.9,0.6,1.2s0.6,0.6,0.9,0.7s0.8,0.2,1.2,0.2
			c0.4,0,0.8,0,1.1-0.1s0.6-0.2,0.8-0.3s0.4-0.2,0.5-0.3s0.2-0.1,0.3-0.1c0.1,0,0.1,0,0.1,0s0.1,0.1,0.1,0.1s0,0.2,0.1,0.3
			S89.4,99.6,89.4,99.8z"/>
		<path class="st12" d="M99.4,91.1c0,0.2,0,0.3,0,0.4s0,0.2-0.1,0.3S99.2,92,99.2,92s-0.1,0.1-0.1,0.1h-2.8v9.2c0,0.1,0,0.1-0.1,0.2
			s-0.1,0.1-0.2,0.1s-0.2,0.1-0.4,0.1s-0.3,0-0.6,0s-0.4,0-0.6,0s-0.3,0-0.4-0.1s-0.2-0.1-0.2-0.1s-0.1-0.1-0.1-0.2v-9.2H91
			c-0.1,0-0.1,0-0.1-0.1s-0.1-0.1-0.1-0.2s-0.1-0.2-0.1-0.3s0-0.3,0-0.4c0-0.2,0-0.3,0-0.4s0-0.2,0.1-0.3s0.1-0.1,0.1-0.2
			s0.1,0,0.1,0h8c0.1,0,0.1,0,0.1,0s0.1,0.1,0.1,0.2s0.1,0.2,0.1,0.3S99.4,91,99.4,91.1z"/>
		<path class="st12" d="M118.4,101.3c0,0.1,0,0.1,0,0.2s-0.1,0.1-0.2,0.1s-0.2,0.1-0.3,0.1s-0.3,0-0.5,0c-0.2,0-0.4,0-0.5,0
			s-0.3,0-0.3-0.1s-0.1-0.1-0.2-0.1s-0.1-0.1-0.1-0.2V92h0l-3.3,9.2c0,0.1-0.1,0.1-0.1,0.2s-0.1,0.1-0.2,0.1s-0.2,0-0.3,0.1
			s-0.3,0-0.5,0s-0.4,0-0.5,0s-0.3,0-0.3-0.1s-0.2-0.1-0.2-0.1s-0.1-0.1-0.1-0.2l-3.2-9.2h0v9.3c0,0.1,0,0.1,0,0.2s-0.1,0.1-0.2,0.1
			s-0.2,0.1-0.3,0.1s-0.3,0-0.5,0c-0.2,0-0.4,0-0.5,0s-0.3,0-0.3-0.1s-0.1-0.1-0.2-0.1s0-0.1,0-0.2V91.1c0-0.3,0.1-0.5,0.2-0.7
			s0.4-0.2,0.6-0.2h1.5c0.3,0,0.5,0,0.7,0.1s0.4,0.1,0.5,0.2s0.3,0.2,0.4,0.4s0.2,0.4,0.2,0.6l2.5,6.8h0l2.5-6.8
			c0.1-0.2,0.2-0.5,0.3-0.6s0.2-0.3,0.3-0.4s0.3-0.2,0.4-0.2s0.4-0.1,0.6-0.1h1.6c0.2,0,0.3,0,0.4,0.1s0.2,0.1,0.3,0.2
			s0.1,0.2,0.2,0.3s0.1,0.2,0.1,0.4V101.3z"/>
		<path class="st12" d="M128.3,100.7c0,0.2,0,0.3,0,0.4s0,0.2-0.1,0.3s-0.1,0.1-0.1,0.2s-0.1,0-0.1,0h-5.7c-0.2,0-0.4-0.1-0.5-0.2
			s-0.2-0.3-0.2-0.6v-9.9c0-0.3,0.1-0.4,0.2-0.6s0.3-0.2,0.5-0.2h5.7c0.1,0,0.1,0,0.1,0s0.1,0.1,0.1,0.2s0.1,0.2,0.1,0.3
			s0,0.3,0,0.4c0,0.2,0,0.3,0,0.4s0,0.2-0.1,0.3s-0.1,0.1-0.1,0.2s-0.1,0-0.1,0h-4.1v2.8h3.4c0.1,0,0.1,0,0.1,0s0.1,0.1,0.1,0.1
			s0.1,0.2,0.1,0.3s0,0.3,0,0.4c0,0.2,0,0.3,0,0.4s0,0.2-0.1,0.3s-0.1,0.1-0.1,0.1s-0.1,0-0.1,0h-3.4v3.2h4.1c0.1,0,0.1,0,0.1,0
			s0.1,0.1,0.1,0.2s0.1,0.2,0.1,0.3S128.3,100.5,128.3,100.7z"/>
	</g>
	<g class="st40">
		<defs>
			<rect id="SVGID_23_" x="-229.5" y="-644.4" width="1280" height="1966.4"/>
		</defs>
		<clipPath id="SVGID_6_">
			<use xlink:href="#SVGID_23_"  style="overflow:visible;"/>
		</clipPath>
		<path style="clip-path:url(#SVGID_6_);fill:#E8EBEB;" d="M100.1,40.3c0,13.8-11.2,25-25,25c-13.8,0-25-11.2-25-25
			c0-13.8,11.2-25,25-25C88.9,15.3,100.1,26.5,100.1,40.3"/>
		<path style="clip-path:url(#SVGID_6_);fill:#FFFFFF;" d="M106.1,11.3v16.1c0,1.6-1.3,2.9-2.9,2.9H87l-6.2,5.5
			c-0.6,0.6-1.7,0.1-1.7-0.7v-4.8h-2c-1.7,0-3-1.4-3-3v-16c0-1.7,1.3-3,3-3h26C104.8,8.3,106.1,9.7,106.1,11.3"/>
		<path style="clip-path:url(#SVGID_6_);fill:none;stroke:#1C3661;stroke-width:2;stroke-miterlimit:10;" d="M106.1,11.3v16.1
			c0,1.6-1.3,2.9-2.9,2.9H87l-6.2,5.5c-0.6,0.6-1.7,0.1-1.7-0.7v-4.8h-2c-1.7,0-3-1.4-3-3v-16c0-1.7,1.3-3,3-3h26
			C104.8,8.3,106.1,9.7,106.1,11.3z"/>
		<path style="clip-path:url(#SVGID_6_);fill:#ED0080;" d="M86,46.7c-3.1-2.8-8.3-5.1-12.2-5.2c-1.1,0.8-3.3,3.3-4.1,4.4
			c-2.3-0.9-4.8-3.5-7.1-6.3c-2.3-2.8-4.4-5.8-4.8-8.2c1.3-0.5,4.1-2.2,5.2-3.2c0.6-3.9-0.6-9.4-2.8-13c-2.4-0.5-8-0.7-12,1
			c-1.4,5-1.1,15.4,8.9,28c10.4,12.2,20.6,14.5,25.7,14.1C85.1,54.7,86,49.1,86,46.7"/>
	</g>
	<path class="st4" d="M93.1,19.3h2 M89.1,19.3h2 M85.1,19.3h2"/>
	<g class="st40">
		<defs>
			<rect id="SVGID_25_" x="-229.5" y="-644.4" width="1280" height="1966.4"/>
		</defs>
		<clipPath id="SVGID_8_">
			<use xlink:href="#SVGID_25_"  style="overflow:visible;"/>
		</clipPath>
	</g>
	<g class="st40">
		<defs>
			<rect id="SVGID_27_" x="-229.5" y="-644.4" width="1280" height="1966.4"/>
		</defs>
		<clipPath id="SVGID_10_">
			<use xlink:href="#SVGID_27_"  style="overflow:visible;"/>
		</clipPath>
	</g>
	<g class="st40">
		<defs>
			<rect id="SVGID_29_" x="-229.5" y="-644.4" width="1280" height="1966.4"/>
		</defs>
		<clipPath id="SVGID_12_">
			<use xlink:href="#SVGID_29_"  style="overflow:visible;"/>
		</clipPath>
	</g>
	<g class="st40">
		<defs>
			<rect id="SVGID_31_" x="-229.5" y="-644.4" width="1280" height="1966.4"/>
		</defs>
		<clipPath id="SVGID_14_">
			<use xlink:href="#SVGID_31_"  style="overflow:visible;"/>
		</clipPath>
	</g>
	<g class="st40">
		<defs>
			<rect id="SVGID_33_" x="-229.5" y="-644.4" width="1280" height="1966.4"/>
		</defs>
		<clipPath id="SVGID_16_">
			<use xlink:href="#SVGID_33_"  style="overflow:visible;"/>
		</clipPath>
	</g>
	<g class="st40">
		<defs>
			<rect id="SVGID_35_" x="-229.5" y="-644.4" width="1280" height="1966.4"/>
		</defs>
		<clipPath id="SVGID_18_">
			<use xlink:href="#SVGID_35_"  style="overflow:visible;"/>
		</clipPath>
	</g>
	<g class="st40">
		<defs>
			<rect id="SVGID_37_" x="-229.5" y="-644.4" width="1280" height="1966.4"/>
		</defs>
		<clipPath id="SVGID_20_">
			<use xlink:href="#SVGID_37_"  style="overflow:visible;"/>
		</clipPath>
	</g>
	<g class="st40">
		<defs>
			<rect id="SVGID_39_" x="-229.5" y="-644.4" width="1280" height="1966.4"/>
		</defs>
		<clipPath id="SVGID_22_">
			<use xlink:href="#SVGID_39_"  style="overflow:visible;"/>
		</clipPath>
	</g>
	<g class="st40">
		<defs>
			<rect id="SVGID_41_" x="-229.5" y="-644.4" width="1280" height="1966.4"/>
		</defs>
		<clipPath id="SVGID_24_">
			<use xlink:href="#SVGID_41_"  style="overflow:visible;"/>
		</clipPath>
	</g>
	<g class="st40">
		<defs>
			<rect id="SVGID_43_" x="-229.5" y="-644.4" width="1280" height="1966.4"/>
		</defs>
		<clipPath id="SVGID_26_">
			<use xlink:href="#SVGID_43_"  style="overflow:visible;"/>
		</clipPath>
	</g>
	<g class="st40">
		<defs>
			<rect id="SVGID_45_" x="-229.5" y="-644.4" width="1280" height="1966.4"/>
		</defs>
		<clipPath id="SVGID_28_">
			<use xlink:href="#SVGID_45_"  style="overflow:visible;"/>
		</clipPath>
	</g>
	<g class="st40">
		<defs>
			<rect id="SVGID_47_" x="-229.5" y="-644.4" width="1280" height="1966.4"/>
		</defs>
		<clipPath id="SVGID_30_">
			<use xlink:href="#SVGID_47_"  style="overflow:visible;"/>
		</clipPath>
	</g>
	<g class="st40">
		<defs>
			<rect id="SVGID_51_" x="-229.5" y="-644.4" width="1280" height="1966.4"/>
		</defs>
		<clipPath id="SVGID_32_">
			<use xlink:href="#SVGID_51_"  style="overflow:visible;"/>
		</clipPath>
	</g>
	<g class="st40">
		<defs>
			<rect id="SVGID_55_" x="-229.5" y="-644.4" width="1280" height="1966.4"/>
		</defs>
		<clipPath id="SVGID_34_">
			<use xlink:href="#SVGID_55_"  style="overflow:visible;"/>
		</clipPath>
	</g>
	<g class="st40">
		<defs>
			<rect id="SVGID_59_" x="-229.5" y="-644.4" width="1280" height="1966.4"/>
		</defs>
		<clipPath id="SVGID_36_">
			<use xlink:href="#SVGID_59_"  style="overflow:visible;"/>
		</clipPath>
	</g>
	<g class="st40">
		<defs>
			<rect id="SVGID_63_" x="-229.5" y="-644.4" width="1280" height="1966.4"/>
		</defs>
		<clipPath id="SVGID_38_">
			<use xlink:href="#SVGID_63_"  style="overflow:visible;"/>
		</clipPath>
	</g>
	<g class="st40">
		<defs>
			<rect id="SVGID_65_" x="-229.5" y="-644.4" width="1280" height="1966.4"/>
		</defs>
		<clipPath id="SVGID_40_">
			<use xlink:href="#SVGID_65_"  style="overflow:visible;"/>
		</clipPath>
	</g>
	<g class="st40">
		<defs>
			<rect id="SVGID_67_" x="-229.5" y="-644.4" width="1280" height="1966.4"/>
		</defs>
		<clipPath id="SVGID_42_">
			<use xlink:href="#SVGID_67_"  style="overflow:visible;"/>
		</clipPath>
	</g>
	<g class="st40">
		<defs>
			<rect id="SVGID_69_" x="-229.5" y="-644.4" width="1280" height="1966.4"/>
		</defs>
		<clipPath id="SVGID_44_">
			<use xlink:href="#SVGID_69_"  style="overflow:visible;"/>
		</clipPath>
	</g>
	<g class="st40">
		<defs>
			<rect id="SVGID_71_" x="-229.5" y="-644.4" width="1280" height="1966.4"/>
		</defs>
		<clipPath id="SVGID_46_">
			<use xlink:href="#SVGID_71_"  style="overflow:visible;"/>
		</clipPath>
	</g>
	<g class="st40">
		<defs>
			<rect id="SVGID_73_" x="-229.5" y="-644.4" width="1280" height="1966.4"/>
		</defs>
		<clipPath id="SVGID_48_">
			<use xlink:href="#SVGID_73_"  style="overflow:visible;"/>
		</clipPath>
	</g>
	<g class="st40">
		<defs>
			<rect id="SVGID_75_" x="-229.5" y="-644.4" width="1280" height="1966.4"/>
		</defs>
		<clipPath id="SVGID_50_">
			<use xlink:href="#SVGID_75_"  style="overflow:visible;"/>
		</clipPath>
	</g>
	<g class="st40">
		<defs>
			<rect id="SVGID_77_" x="-229.5" y="-644.4" width="1280" height="1966.4"/>
		</defs>
		<clipPath id="SVGID_52_">
			<use xlink:href="#SVGID_77_"  style="overflow:visible;"/>
		</clipPath>
	</g>
	<g class="st40">
		<defs>
			<rect id="SVGID_79_" x="-229.5" y="-644.4" width="1280" height="1966.4"/>
		</defs>
		<clipPath id="SVGID_54_">
			<use xlink:href="#SVGID_79_"  style="overflow:visible;"/>
		</clipPath>
	</g>
	<g class="st40">
		<defs>
			<rect id="SVGID_81_" x="-229.5" y="-644.4" width="1280" height="1966.4"/>
		</defs>
		<clipPath id="SVGID_56_">
			<use xlink:href="#SVGID_81_"  style="overflow:visible;"/>
		</clipPath>
	</g>
	<g class="st40">
		<defs>
			<rect id="SVGID_97_" x="-229.5" y="-644.4" width="1280" height="1966.4"/>
		</defs>
		<clipPath id="SVGID_58_">
			<use xlink:href="#SVGID_97_"  style="overflow:visible;"/>
		</clipPath>
	</g>
	<g class="st40">
		<defs>
			<rect id="SVGID_99_" x="-229.5" y="-644.4" width="1280" height="1966.4"/>
		</defs>
		<clipPath id="SVGID_60_">
			<use xlink:href="#SVGID_99_"  style="overflow:visible;"/>
		</clipPath>
	</g>
	<g class="st40">
		<defs>
			<rect id="SVGID_101_" x="-229.5" y="-644.4" width="1280" height="1966.4"/>
		</defs>
		<clipPath id="SVGID_62_">
			<use xlink:href="#SVGID_101_"  style="overflow:visible;"/>
		</clipPath>
	</g>
	<g class="st40">
		<defs>
			<rect id="SVGID_103_" x="-229.5" y="-644.4" width="1280" height="1966.4"/>
		</defs>
		<clipPath id="SVGID_64_">
			<use xlink:href="#SVGID_103_"  style="overflow:visible;"/>
		</clipPath>
	</g>
	<g class="st40">
		<defs>
			<rect id="SVGID_105_" x="-229.5" y="-644.4" width="1280" height="1966.4"/>
		</defs>
		<clipPath id="SVGID_66_">
			<use xlink:href="#SVGID_105_"  style="overflow:visible;"/>
		</clipPath>
	</g>
	<g class="st40">
		<defs>
			<rect id="SVGID_107_" x="-229.5" y="-644.4" width="1280" height="1966.4"/>
		</defs>
		<clipPath id="SVGID_68_">
			<use xlink:href="#SVGID_107_"  style="overflow:visible;"/>
		</clipPath>
	</g>
	<g class="st40">
		<defs>
			<rect id="SVGID_109_" x="-229.5" y="-644.4" width="1280" height="1966.4"/>
		</defs>
		<clipPath id="SVGID_70_">
			<use xlink:href="#SVGID_109_"  style="overflow:visible;"/>
		</clipPath>
	</g>
	<g class="st40">
		<defs>
			<rect id="SVGID_111_" x="-229.5" y="-644.4" width="1280" height="1966.4"/>
		</defs>
		<clipPath id="SVGID_72_">
			<use xlink:href="#SVGID_111_"  style="overflow:visible;"/>
		</clipPath>
	</g>
</g>
</svg>
