<?xml version="1.0" encoding="utf-8"?>
<!-- Generator: Adobe Illustrator 22.0.1, SVG Export Plug-In . SVG Version: 6.00 Build 0)  -->
<svg version="1.1" id="Layer_1" xmlns="http://www.w3.org/2000/svg" xmlns:xlink="http://www.w3.org/1999/xlink" x="0px" y="0px"
	 width="220.5px" height="117px" viewBox="0 0 220.5 117" style="enable-background:new 0 0 220.5 117;" xml:space="preserve">
<style type="text/css">
	.st0{fill:none;stroke:#1C3661;stroke-width:2;stroke-miterlimit:10;}
	.st1{fill:#ED0080;}
	.st2{fill:none;stroke:#BDBFC4;stroke-width:2;stroke-miterlimit:10;}
	.st3{fill:#1C3661;}
</style>
<ellipse class="st0" cx="105.9" cy="39.4" rx="18" ry="18"/>
<g>
	<polygon class="st1" points="98.9,38.4 102.9,42.4 112.9,31.4 115.9,34.4 102.9,48.4 95.9,41.4 	"/>
</g>
<path class="st2" d="M88.1,54.5L88.1,54.5c-8.7-9.4-8.1-24.1,1.3-32.8c0.4-0.4,0.8-0.7,1.2-1.1 M122.3,16c-4.4-3.3-9.8-5.3-15.7-5.5
	c-10.5-0.4-20,4.9-25.2,13.2 M116.8,65c9.7-4.2,16.6-13.7,17-25c0.2-5.2-1-10.1-3.2-14.4 M104.2,67.4L104.2,67.4
	c-15.7-0.6-28-13.9-27.3-29.6c0-0.7,0.1-1.3,0.2-2"/>
<g>
	<path class="st3" d="M30.7,104.4c0,0.1,0,0.1-0.1,0.2s-0.1,0.1-0.2,0.1s-0.2,0.1-0.4,0.1s-0.3,0-0.6,0c-0.2,0-0.4,0-0.6,0
		s-0.3,0-0.4-0.1s-0.2-0.1-0.2-0.1s-0.1-0.1-0.1-0.2V93.6c0-0.1,0-0.1,0.1-0.2s0.1-0.1,0.2-0.1s0.2-0.1,0.4-0.1s0.3,0,0.6,0
		c0.2,0,0.4,0,0.6,0s0.3,0,0.4,0.1s0.2,0.1,0.2,0.1s0.1,0.1,0.1,0.2V104.4z"/>
	<path class="st3" d="M42.5,103.9c0,0.1,0,0.3-0.1,0.4s-0.1,0.2-0.2,0.3s-0.2,0.1-0.3,0.2c-0.1,0-0.2,0-0.3,0h-1
		c-0.2,0-0.4,0-0.5-0.1s-0.3-0.1-0.4-0.2s-0.2-0.3-0.4-0.4c-0.1-0.2-0.2-0.4-0.4-0.7L36.1,98c-0.2-0.3-0.3-0.7-0.5-1
		c-0.2-0.4-0.3-0.7-0.5-1.1h0c0,0.4,0,0.8,0.1,1.3c0,0.4,0,0.9,0,1.3v6c0,0.1,0,0.1,0,0.2s-0.1,0.1-0.2,0.1c-0.1,0-0.2,0.1-0.3,0.1
		s-0.3,0-0.5,0c-0.2,0-0.4,0-0.5,0s-0.2,0-0.3-0.1c-0.1,0-0.1-0.1-0.2-0.1s0-0.1,0-0.2V94.2c0-0.3,0.1-0.5,0.2-0.6s0.4-0.2,0.6-0.2
		h1.2c0.2,0,0.4,0,0.6,0.1c0.2,0,0.3,0.1,0.4,0.2s0.2,0.2,0.3,0.4s0.2,0.3,0.3,0.6l2.2,4.2c0.1,0.3,0.3,0.5,0.4,0.7
		c0.1,0.2,0.2,0.5,0.4,0.7s0.2,0.5,0.3,0.7s0.2,0.5,0.3,0.7h0c0-0.4,0-0.8,0-1.3s0-0.9,0-1.3v-5.3c0-0.1,0-0.1,0.1-0.2
		s0.1-0.1,0.2-0.1s0.2-0.1,0.3-0.1c0.1,0,0.3,0,0.5,0c0.2,0,0.4,0,0.5,0c0.1,0,0.2,0,0.3,0.1s0.1,0.1,0.2,0.1s0,0.1,0,0.2V103.9z"/>
	<path class="st3" d="M54.4,98.8c0,1-0.1,1.9-0.4,2.7c-0.3,0.7-0.7,1.3-1.2,1.8s-1.1,0.8-1.9,1c-0.7,0.2-1.6,0.3-2.6,0.3h-2.7
		c-0.2,0-0.4-0.1-0.5-0.2c-0.1-0.1-0.2-0.3-0.2-0.6v-9.9c0-0.3,0.1-0.4,0.2-0.6c0.1-0.1,0.3-0.2,0.5-0.2h2.9c1,0,1.9,0.1,2.6,0.4
		c0.7,0.2,1.3,0.6,1.8,1.1c0.5,0.5,0.9,1,1.1,1.7S54.4,97.9,54.4,98.8z M52,98.9c0-0.5-0.1-1-0.2-1.5s-0.3-0.9-0.6-1.2
		s-0.6-0.6-1.1-0.8c-0.4-0.2-1-0.3-1.7-0.3h-1.2v7.7h1.2c0.6,0,1.2-0.1,1.6-0.2s0.8-0.4,1.1-0.7s0.5-0.7,0.7-1.2S52,99.6,52,98.9z"
		/>
	<path class="st3" d="M65.6,100.5c0,0.7-0.1,1.3-0.3,1.9s-0.5,1-0.9,1.4s-0.9,0.7-1.5,0.9s-1.3,0.3-2,0.3c-0.7,0-1.4-0.1-1.9-0.3
		c-0.6-0.2-1-0.4-1.4-0.8s-0.7-0.8-0.9-1.4s-0.3-1.2-0.3-1.9v-6.9c0-0.1,0-0.1,0.1-0.2s0.1-0.1,0.2-0.1s0.2-0.1,0.4-0.1s0.3,0,0.6,0
		c0.2,0,0.4,0,0.6,0s0.3,0,0.4,0.1s0.2,0.1,0.2,0.1s0.1,0.1,0.1,0.2v6.7c0,0.5,0.1,0.8,0.2,1.2s0.3,0.6,0.5,0.8s0.5,0.4,0.7,0.5
		c0.3,0.1,0.6,0.2,1,0.2c0.4,0,0.7-0.1,1-0.2s0.5-0.3,0.7-0.5c0.2-0.2,0.4-0.5,0.5-0.8c0.1-0.3,0.2-0.7,0.2-1.1v-6.8
		c0-0.1,0-0.1,0.1-0.2s0.1-0.1,0.2-0.1s0.2-0.1,0.4-0.1s0.3,0,0.6,0s0.4,0,0.5,0s0.3,0,0.3,0.1s0.1,0.1,0.2,0.1s0.1,0.1,0.1,0.2
		V100.5z"/>
	<path class="st3" d="M74.8,101.3c0,0.6-0.1,1.1-0.3,1.6s-0.5,0.8-0.9,1.1s-0.8,0.5-1.3,0.7s-1.1,0.2-1.6,0.2c-0.4,0-0.8,0-1.1-0.1
		s-0.6-0.1-0.9-0.2s-0.5-0.2-0.6-0.3s-0.3-0.2-0.4-0.3s-0.1-0.2-0.2-0.3s0-0.4,0-0.6c0-0.2,0-0.3,0-0.5s0-0.2,0.1-0.3
		s0.1-0.1,0.1-0.2c0,0,0.1,0,0.2,0c0.1,0,0.2,0,0.3,0.1c0.1,0.1,0.3,0.2,0.6,0.3s0.5,0.2,0.8,0.3c0.3,0.1,0.7,0.1,1.1,0.1
		c0.3,0,0.5,0,0.8-0.1s0.4-0.2,0.6-0.3s0.3-0.3,0.4-0.5s0.1-0.4,0.1-0.6c0-0.3-0.1-0.5-0.2-0.7c-0.1-0.2-0.3-0.3-0.5-0.5
		c-0.2-0.1-0.5-0.3-0.8-0.4c-0.3-0.1-0.6-0.3-0.9-0.4s-0.6-0.3-0.9-0.5c-0.3-0.2-0.5-0.4-0.8-0.6s-0.4-0.5-0.5-0.9s-0.2-0.7-0.2-1.2
		c0-0.5,0.1-1,0.3-1.4c0.2-0.4,0.5-0.8,0.8-1c0.3-0.3,0.7-0.5,1.2-0.6s1-0.2,1.5-0.2c0.3,0,0.5,0,0.8,0.1s0.5,0.1,0.8,0.2
		s0.4,0.1,0.6,0.2s0.3,0.2,0.4,0.2s0.1,0.1,0.1,0.1s0,0.1,0.1,0.2c0,0.1,0,0.2,0,0.3s0,0.2,0,0.4c0,0.2,0,0.3,0,0.4s0,0.2,0,0.3
		s0,0.1-0.1,0.2s-0.1,0.1-0.2,0.1s-0.2,0-0.3-0.1s-0.3-0.2-0.5-0.3c-0.2-0.1-0.4-0.2-0.7-0.3c-0.3-0.1-0.6-0.1-0.9-0.1
		c-0.3,0-0.5,0-0.7,0.1c-0.2,0.1-0.3,0.1-0.5,0.3s-0.2,0.2-0.3,0.4s-0.1,0.3-0.1,0.5c0,0.3,0.1,0.5,0.2,0.7c0.1,0.2,0.3,0.3,0.6,0.5
		s0.5,0.3,0.8,0.4s0.6,0.3,0.9,0.4s0.6,0.3,0.9,0.5s0.6,0.4,0.8,0.6c0.2,0.2,0.4,0.5,0.6,0.9C74.8,100.4,74.8,100.8,74.8,101.3z"/>
	<path class="st3" d="M84,94.3c0,0.2,0,0.3,0,0.4s0,0.2-0.1,0.3c0,0.1-0.1,0.1-0.1,0.2s-0.1,0.1-0.1,0.1h-2.8v9.2
		c0,0.1,0,0.1-0.1,0.2s-0.1,0.1-0.2,0.1s-0.2,0.1-0.4,0.1s-0.3,0-0.6,0s-0.4,0-0.6,0s-0.3,0-0.4-0.1s-0.2-0.1-0.2-0.1
		s-0.1-0.1-0.1-0.2v-9.2h-2.8c-0.1,0-0.1,0-0.1-0.1s-0.1-0.1-0.1-0.2c0-0.1-0.1-0.2-0.1-0.3s0-0.3,0-0.4c0-0.2,0-0.3,0-0.4
		s0-0.2,0.1-0.3s0.1-0.1,0.1-0.2s0.1,0,0.1,0h8c0.1,0,0.1,0,0.1,0s0.1,0.1,0.1,0.2s0.1,0.2,0.1,0.3S84,94.1,84,94.3z"/>
	<path class="st3" d="M93.8,104.4c0,0.1,0,0.1,0,0.2c0,0-0.1,0.1-0.2,0.1s-0.2,0-0.4,0.1s-0.4,0-0.7,0c-0.2,0-0.4,0-0.6,0
		s-0.3,0-0.3-0.1c-0.1,0-0.1-0.1-0.2-0.1c0,0-0.1-0.1-0.1-0.2l-1-2.5c-0.1-0.3-0.2-0.5-0.4-0.8s-0.2-0.4-0.4-0.6
		c-0.1-0.1-0.3-0.3-0.5-0.3s-0.4-0.1-0.7-0.1h-0.7v4.3c0,0.1,0,0.1-0.1,0.2s-0.1,0.1-0.2,0.1s-0.2,0.1-0.4,0.1s-0.3,0-0.6,0
		c-0.2,0-0.4,0-0.6,0s-0.3,0-0.4-0.1s-0.1-0.1-0.2-0.1s-0.1-0.1-0.1-0.2V94.1c0-0.3,0.1-0.4,0.2-0.6c0.1-0.1,0.3-0.2,0.5-0.2H89
		c0.3,0,0.5,0,0.7,0s0.4,0,0.5,0c0.5,0.1,0.9,0.2,1.2,0.3s0.7,0.4,0.9,0.6c0.3,0.3,0.4,0.6,0.6,0.9c0.1,0.3,0.2,0.7,0.2,1.2
		c0,0.4,0,0.7-0.1,1s-0.2,0.6-0.4,0.8s-0.4,0.5-0.7,0.6s-0.6,0.3-0.9,0.4c0.2,0.1,0.3,0.2,0.5,0.3s0.3,0.3,0.4,0.4
		c0.1,0.2,0.3,0.4,0.4,0.6s0.2,0.5,0.3,0.7l1,2.2c0.1,0.2,0.1,0.4,0.2,0.5C93.8,104.3,93.8,104.3,93.8,104.4z M90.8,96.7
		c0-0.4-0.1-0.7-0.3-0.9s-0.4-0.4-0.8-0.5c-0.1,0-0.3-0.1-0.4-0.1s-0.4,0-0.6,0h-1v3.2h1.2c0.3,0,0.6,0,0.9-0.1
		c0.2-0.1,0.5-0.2,0.6-0.3c0.2-0.1,0.3-0.3,0.4-0.5S90.8,96.9,90.8,96.7z"/>
	<path class="st3" d="M99.7,100.4v4c0,0.1,0,0.1-0.1,0.2s-0.1,0.1-0.2,0.1s-0.2,0.1-0.4,0.1s-0.3,0-0.6,0c-0.2,0-0.4,0-0.6,0
		s-0.3,0-0.4-0.1s-0.2-0.1-0.2-0.1s-0.1-0.1-0.1-0.2v-4l-3.1-6.2c-0.1-0.2-0.2-0.4-0.2-0.5c0-0.1,0-0.2,0.1-0.3
		c0.1-0.1,0.2-0.1,0.4-0.1c0.2,0,0.4,0,0.8,0c0.3,0,0.5,0,0.6,0s0.3,0,0.4,0.1s0.2,0.1,0.2,0.1s0.1,0.1,0.1,0.2l1.3,2.8
		c0.1,0.3,0.2,0.6,0.4,0.9s0.2,0.6,0.4,0.9h0c0.1-0.3,0.2-0.6,0.3-0.9s0.2-0.6,0.3-0.9l1.2-2.8c0-0.1,0.1-0.2,0.1-0.2
		s0.1-0.1,0.2-0.1s0.2-0.1,0.4-0.1s0.4,0,0.6,0c0.3,0,0.6,0,0.8,0c0.2,0,0.3,0.1,0.4,0.1c0.1,0.1,0.1,0.2,0,0.3s-0.1,0.3-0.2,0.5
		L99.7,100.4z"/>
	<path class="st3" d="M116.8,101.3c0,0.4-0.1,0.8-0.2,1.1s-0.3,0.6-0.5,0.9s-0.4,0.5-0.7,0.7s-0.6,0.3-0.9,0.4s-0.7,0.2-1,0.3
		c-0.4,0.1-0.8,0.1-1.2,0.1h-3c-0.2,0-0.4-0.1-0.5-0.2c-0.1-0.1-0.2-0.3-0.2-0.6v-9.9c0-0.3,0.1-0.4,0.2-0.6
		c0.1-0.1,0.3-0.2,0.5-0.2h2.9c0.7,0,1.3,0.1,1.8,0.2s0.9,0.3,1.2,0.5c0.3,0.2,0.6,0.5,0.8,0.9s0.3,0.8,0.3,1.3c0,0.3,0,0.5-0.1,0.8
		s-0.2,0.5-0.3,0.7s-0.3,0.4-0.5,0.5s-0.4,0.3-0.7,0.4c0.3,0.1,0.6,0.2,0.9,0.3s0.5,0.3,0.7,0.6c0.2,0.2,0.4,0.5,0.5,0.8
		S116.8,100.9,116.8,101.3z M113.8,96.5c0-0.2,0-0.4-0.1-0.6s-0.2-0.3-0.3-0.5s-0.3-0.2-0.5-0.3s-0.5-0.1-0.9-0.1h-1.2v3h1.3
		c0.3,0,0.6,0,0.8-0.1c0.2-0.1,0.4-0.2,0.5-0.3c0.1-0.1,0.2-0.3,0.3-0.5C113.8,96.9,113.8,96.7,113.8,96.5z M114.4,101.4
		c0-0.3,0-0.5-0.1-0.7c-0.1-0.2-0.2-0.4-0.4-0.5s-0.4-0.2-0.7-0.3s-0.6-0.1-1-0.1h-1.4v3.2h1.7c0.3,0,0.6,0,0.8-0.1s0.4-0.2,0.6-0.3
		c0.2-0.1,0.3-0.3,0.4-0.5S114.4,101.6,114.4,101.4z"/>
	<path class="st3" d="M127.1,104.4c0,0.1,0,0.1,0,0.2c0,0-0.1,0.1-0.2,0.1s-0.2,0-0.4,0.1s-0.4,0-0.7,0c-0.2,0-0.4,0-0.6,0
		s-0.3,0-0.3-0.1c-0.1,0-0.1-0.1-0.2-0.1c0,0-0.1-0.1-0.1-0.2l-1-2.5c-0.1-0.3-0.2-0.5-0.4-0.8s-0.2-0.4-0.4-0.6
		c-0.1-0.1-0.3-0.3-0.5-0.3s-0.4-0.1-0.7-0.1h-0.7v4.3c0,0.1,0,0.1-0.1,0.2s-0.1,0.1-0.2,0.1s-0.2,0.1-0.4,0.1s-0.3,0-0.6,0
		c-0.2,0-0.4,0-0.6,0s-0.3,0-0.4-0.1s-0.1-0.1-0.2-0.1s-0.1-0.1-0.1-0.2V94.1c0-0.3,0.1-0.4,0.2-0.6c0.1-0.1,0.3-0.2,0.5-0.2h2.9
		c0.3,0,0.5,0,0.7,0s0.4,0,0.5,0c0.5,0.1,0.9,0.2,1.2,0.3s0.7,0.4,0.9,0.6c0.3,0.3,0.4,0.6,0.6,0.9c0.1,0.3,0.2,0.7,0.2,1.2
		c0,0.4,0,0.7-0.1,1s-0.2,0.6-0.4,0.8s-0.4,0.5-0.7,0.6s-0.6,0.3-0.9,0.4c0.2,0.1,0.3,0.2,0.5,0.3s0.3,0.3,0.4,0.4
		c0.1,0.2,0.3,0.4,0.4,0.6s0.2,0.5,0.3,0.7l1,2.2c0.1,0.2,0.1,0.4,0.2,0.5C127.1,104.3,127.1,104.3,127.1,104.4z M124.1,96.7
		c0-0.4-0.1-0.7-0.3-0.9s-0.4-0.4-0.8-0.5c-0.1,0-0.2-0.1-0.4-0.1s-0.4,0-0.6,0h-1v3.2h1.2c0.3,0,0.6,0,0.9-0.1
		c0.2-0.1,0.5-0.2,0.6-0.3c0.2-0.1,0.3-0.3,0.4-0.5S124.1,96.9,124.1,96.7z"/>
	<path class="st3" d="M138.8,98.9c0,0.9-0.1,1.8-0.4,2.5s-0.6,1.4-1,1.9c-0.5,0.5-1,0.9-1.7,1.2c-0.7,0.3-1.5,0.4-2.4,0.4
		c-0.9,0-1.7-0.1-2.3-0.3c-0.7-0.2-1.2-0.6-1.6-1.1s-0.8-1.1-1-1.8s-0.3-1.6-0.3-2.6c0-0.9,0.1-1.7,0.4-2.5c0.2-0.7,0.6-1.4,1-1.9
		s1-0.9,1.7-1.2s1.5-0.4,2.4-0.4c0.9,0,1.6,0.1,2.3,0.3s1.2,0.6,1.7,1.1s0.8,1.1,1,1.8C138.7,97,138.8,97.9,138.8,98.9z M136.4,99
		c0-0.6,0-1.1-0.1-1.6c-0.1-0.5-0.3-0.9-0.5-1.3s-0.5-0.6-0.9-0.8S134,95,133.5,95c-0.6,0-1,0.1-1.4,0.3s-0.7,0.5-0.9,0.9
		s-0.4,0.8-0.5,1.3s-0.1,1-0.1,1.5c0,0.6,0,1.2,0.1,1.7c0.1,0.5,0.3,0.9,0.5,1.3s0.5,0.6,0.9,0.8c0.4,0.2,0.8,0.3,1.4,0.3
		s1-0.1,1.4-0.3s0.7-0.5,0.9-0.9s0.4-0.8,0.5-1.3C136.4,100.1,136.4,99.5,136.4,99z"/>
	<path class="st3" d="M148.6,103c0,0.1,0,0.3,0,0.4c0,0.1,0,0.2,0,0.3c0,0.1,0,0.1-0.1,0.2s-0.1,0.1-0.1,0.2
		c-0.1,0.1-0.2,0.2-0.4,0.3s-0.4,0.2-0.7,0.3c-0.3,0.1-0.6,0.2-0.9,0.2s-0.7,0.1-1.1,0.1c-0.8,0-1.5-0.1-2.1-0.4s-1.2-0.6-1.6-1.1
		s-0.8-1.1-1-1.8s-0.4-1.5-0.4-2.5c0-1,0.1-1.8,0.4-2.6s0.6-1.4,1.1-1.9s1-0.9,1.7-1.2s1.4-0.4,2.1-0.4c0.3,0,0.6,0,0.9,0.1
		s0.6,0.1,0.8,0.2s0.5,0.2,0.7,0.3s0.3,0.2,0.4,0.3c0.1,0.1,0.1,0.1,0.2,0.2s0.1,0.1,0.1,0.2s0,0.2,0,0.3s0,0.2,0,0.4
		c0,0.2,0,0.3,0,0.4s0,0.2-0.1,0.3s-0.1,0.1-0.1,0.2s-0.1,0.1-0.1,0.1c-0.1,0-0.2-0.1-0.3-0.2s-0.3-0.2-0.5-0.3
		c-0.2-0.1-0.5-0.2-0.8-0.3s-0.6-0.2-1.1-0.2c-0.5,0-0.9,0.1-1.2,0.3c-0.4,0.2-0.7,0.4-0.9,0.8c-0.2,0.3-0.4,0.8-0.6,1.2
		s-0.2,1-0.2,1.6c0,0.7,0.1,1.2,0.2,1.7s0.3,0.9,0.6,1.2s0.6,0.6,0.9,0.7s0.8,0.2,1.2,0.2c0.4,0,0.8,0,1.1-0.1
		c0.3-0.1,0.6-0.2,0.8-0.3s0.4-0.2,0.5-0.3s0.2-0.1,0.3-0.1c0.1,0,0.1,0,0.1,0s0.1,0.1,0.1,0.1s0,0.2,0.1,0.3
		C148.6,102.6,148.6,102.8,148.6,103z"/>
	<path class="st3" d="M159.2,104.4c0,0.1,0,0.1-0.1,0.2s-0.1,0.1-0.2,0.1s-0.2,0.1-0.4,0.1s-0.3,0-0.6,0c-0.2,0-0.4,0-0.6,0
		s-0.3,0-0.4-0.1s-0.1-0.1-0.2-0.1s-0.1-0.1-0.1-0.2v-4.6h-4.3v4.6c0,0.1,0,0.1-0.1,0.2s-0.1,0.1-0.2,0.1s-0.2,0.1-0.4,0.1
		s-0.3,0-0.6,0c-0.2,0-0.4,0-0.6,0s-0.3,0-0.4-0.1s-0.2-0.1-0.2-0.1s-0.1-0.1-0.1-0.2V93.6c0-0.1,0-0.1,0.1-0.2s0.1-0.1,0.2-0.1
		s0.2-0.1,0.4-0.1s0.3,0,0.6,0c0.2,0,0.4,0,0.6,0s0.3,0,0.4,0.1s0.1,0.1,0.2,0.1s0.1,0.1,0.1,0.2v4.2h4.3v-4.2c0-0.1,0-0.1,0.1-0.2
		s0.1-0.1,0.2-0.1s0.2-0.1,0.4-0.1s0.3,0,0.6,0c0.2,0,0.4,0,0.6,0s0.3,0,0.4,0.1s0.2,0.1,0.2,0.1s0.1,0.1,0.1,0.2V104.4z"/>
	<path class="st3" d="M170.9,100.5c0,0.7-0.1,1.3-0.3,1.9s-0.5,1-0.9,1.4s-0.9,0.7-1.5,0.9s-1.3,0.3-2,0.3c-0.7,0-1.4-0.1-1.9-0.3
		c-0.6-0.2-1-0.4-1.4-0.8s-0.7-0.8-0.9-1.4s-0.3-1.2-0.3-1.9v-6.9c0-0.1,0-0.1,0.1-0.2s0.1-0.1,0.2-0.1s0.2-0.1,0.4-0.1s0.3,0,0.6,0
		c0.2,0,0.4,0,0.6,0s0.3,0,0.4,0.1s0.2,0.1,0.2,0.1s0.1,0.1,0.1,0.2v6.7c0,0.5,0.1,0.8,0.2,1.2s0.3,0.6,0.5,0.8s0.5,0.4,0.7,0.5
		c0.3,0.1,0.6,0.2,1,0.2c0.4,0,0.7-0.1,1-0.2s0.5-0.3,0.7-0.5c0.2-0.2,0.4-0.5,0.5-0.8c0.1-0.3,0.2-0.7,0.2-1.1v-6.8
		c0-0.1,0-0.1,0.1-0.2s0.1-0.1,0.2-0.1s0.2-0.1,0.4-0.1s0.3,0,0.6,0s0.4,0,0.5,0s0.3,0,0.3,0.1s0.1,0.1,0.2,0.1s0.1,0.1,0.1,0.2
		V100.5z"/>
	<path class="st3" d="M181.8,104.4c0,0.1,0,0.1,0,0.2c0,0-0.1,0.1-0.2,0.1s-0.2,0-0.4,0.1s-0.4,0-0.7,0c-0.2,0-0.4,0-0.6,0
		s-0.3,0-0.3-0.1c-0.1,0-0.1-0.1-0.2-0.1c0,0-0.1-0.1-0.1-0.2l-1-2.5c-0.1-0.3-0.2-0.5-0.4-0.8s-0.2-0.4-0.4-0.6
		c-0.1-0.1-0.3-0.3-0.5-0.3s-0.4-0.1-0.7-0.1h-0.7v4.3c0,0.1,0,0.1-0.1,0.2c0,0-0.1,0.1-0.2,0.1s-0.2,0.1-0.4,0.1s-0.3,0-0.6,0
		c-0.2,0-0.4,0-0.6,0c-0.2,0-0.3,0-0.4-0.1s-0.1-0.1-0.2-0.1s-0.1-0.1-0.1-0.2V94.1c0-0.3,0.1-0.4,0.2-0.6c0.1-0.1,0.3-0.2,0.5-0.2
		h2.9c0.3,0,0.5,0,0.7,0s0.4,0,0.5,0c0.5,0.1,0.9,0.2,1.2,0.3s0.7,0.4,0.9,0.6c0.3,0.3,0.5,0.6,0.6,0.9c0.1,0.3,0.2,0.7,0.2,1.2
		c0,0.4,0,0.7-0.1,1c-0.1,0.3-0.2,0.6-0.4,0.8s-0.4,0.5-0.7,0.6s-0.6,0.3-0.9,0.4c0.2,0.1,0.3,0.2,0.5,0.3c0.1,0.1,0.3,0.3,0.4,0.4
		c0.1,0.2,0.3,0.4,0.4,0.6s0.2,0.5,0.3,0.7l1,2.2c0.1,0.2,0.1,0.4,0.2,0.5C181.8,104.3,181.8,104.3,181.8,104.4z M178.9,96.7
		c0-0.4-0.1-0.7-0.3-0.9s-0.4-0.4-0.8-0.5c-0.1,0-0.2-0.1-0.4-0.1c-0.1,0-0.4,0-0.6,0h-1v3.2h1.2c0.3,0,0.6,0,0.9-0.1
		c0.2-0.1,0.5-0.2,0.6-0.3c0.2-0.1,0.3-0.3,0.4-0.5S178.9,96.9,178.9,96.7z"/>
	<path class="st3" d="M190.3,103.8c0,0.2,0,0.3,0,0.4c0,0.1,0,0.2-0.1,0.3s-0.1,0.1-0.1,0.2c0,0-0.1,0-0.1,0h-5.7
		c-0.2,0-0.4-0.1-0.5-0.2c-0.1-0.1-0.2-0.3-0.2-0.6v-9.9c0-0.3,0.1-0.4,0.2-0.6c0.1-0.1,0.3-0.2,0.5-0.2h5.7c0.1,0,0.1,0,0.1,0
		s0.1,0.1,0.1,0.2c0,0.1,0.1,0.2,0.1,0.3c0,0.1,0,0.3,0,0.4c0,0.2,0,0.3,0,0.4c0,0.1,0,0.2-0.1,0.3s-0.1,0.1-0.1,0.2
		c0,0-0.1,0-0.1,0h-4.1v2.8h3.4c0.1,0,0.1,0,0.1,0c0,0,0.1,0.1,0.1,0.1c0,0.1,0.1,0.2,0.1,0.3c0,0.1,0,0.3,0,0.4c0,0.2,0,0.3,0,0.4
		s0,0.2-0.1,0.3s-0.1,0.1-0.1,0.1c0,0-0.1,0-0.1,0h-3.4v3.2h4.1c0.1,0,0.1,0,0.1,0c0,0,0.1,0.1,0.1,0.2s0.1,0.2,0.1,0.3
		C190.3,103.5,190.3,103.6,190.3,103.8z"/>
	<path class="st3" d="M198.9,101.3c0,0.6-0.1,1.1-0.3,1.6s-0.5,0.8-0.9,1.1s-0.8,0.5-1.3,0.7s-1.1,0.2-1.6,0.2c-0.4,0-0.8,0-1.1-0.1
		s-0.6-0.1-0.9-0.2s-0.5-0.2-0.6-0.3c-0.2-0.1-0.3-0.2-0.4-0.3s-0.1-0.2-0.2-0.3s0-0.4,0-0.6c0-0.2,0-0.3,0-0.5s0-0.2,0.1-0.3
		c0-0.1,0.1-0.1,0.1-0.2c0,0,0.1,0,0.2,0c0.1,0,0.2,0,0.3,0.1c0.2,0.1,0.3,0.2,0.6,0.3s0.5,0.2,0.8,0.3c0.3,0.1,0.7,0.1,1.1,0.1
		c0.3,0,0.5,0,0.8-0.1s0.4-0.2,0.6-0.3s0.3-0.3,0.4-0.5s0.1-0.4,0.1-0.6c0-0.3-0.1-0.5-0.2-0.7c-0.1-0.2-0.3-0.3-0.5-0.5
		c-0.2-0.1-0.5-0.3-0.8-0.4c-0.3-0.1-0.6-0.3-0.9-0.4s-0.6-0.3-0.9-0.5c-0.3-0.2-0.5-0.4-0.8-0.6c-0.2-0.2-0.4-0.5-0.5-0.9
		s-0.2-0.7-0.2-1.2c0-0.5,0.1-1,0.3-1.4c0.2-0.4,0.5-0.8,0.8-1c0.3-0.3,0.7-0.5,1.2-0.6c0.5-0.1,1-0.2,1.5-0.2c0.3,0,0.5,0,0.8,0.1
		s0.5,0.1,0.8,0.2s0.4,0.1,0.6,0.2s0.3,0.2,0.4,0.2s0.1,0.1,0.1,0.1s0,0.1,0.1,0.2c0,0.1,0,0.2,0,0.3s0,0.2,0,0.4c0,0.2,0,0.3,0,0.4
		c0,0.1,0,0.2,0,0.3s0,0.1-0.1,0.2s-0.1,0.1-0.2,0.1s-0.2,0-0.3-0.1s-0.3-0.2-0.5-0.3c-0.2-0.1-0.4-0.2-0.7-0.3
		c-0.3-0.1-0.6-0.1-0.9-0.1c-0.3,0-0.5,0-0.7,0.1c-0.2,0.1-0.3,0.1-0.5,0.3s-0.2,0.2-0.3,0.4c-0.1,0.2-0.1,0.3-0.1,0.5
		c0,0.3,0.1,0.5,0.2,0.7c0.1,0.2,0.3,0.3,0.6,0.5s0.5,0.3,0.8,0.4s0.6,0.3,0.9,0.4s0.6,0.3,0.9,0.5s0.6,0.4,0.8,0.6
		c0.2,0.2,0.4,0.5,0.6,0.9C198.8,100.4,198.9,100.8,198.9,101.3z"/>
</g>
</svg>
